STARTFONT 2.1
COMMENT $XFree86$
COMMENT ISO10646-1 extension by Markus Kuhn <mkuhn@acm.org>, 2001-03-20
COMMENT  (c) Copyright Bigelow & Holmes 1986, 1985. Lucida is a registered
COMMENT  trademark of Bigelow & Holmes. See LEGAL NOTICE file for terms 
COMMENT  of the license. 
FONT -B&H-LucidaBright-Medium-I-Normal--18-180-75-75-P-102-ISO10646-1
SIZE 18 72 72
FONTBOUNDINGBOX 29 29 -9 -8
STARTPROPERTIES 22
COMMENT Begin LogicalFontDescription
FONTNAME_REGISTRY ""
FOUNDRY "B&H"
FAMILY_NAME "LucidaBright"
WEIGHT_NAME "Medium"
SLANT "I"
SETWIDTH_NAME "Normal"
ADD_STYLE_NAME ""
PIXEL_SIZE 18
POINT_SIZE 180
RESOLUTION_X 75
RESOLUTION_Y 75
SPACING "P"
AVERAGE_WIDTH 102
CHARSET_REGISTRY "ISO10646"
CHARSET_ENCODING "1"
COMMENT END LogicalFontDescription
FONT_ASCENT 16
FONT_DESCENT 4
DEFAULT_CHAR 0
COPYRIGHT "Copyright Bigelow & Holmes 1986, 1985."
FACE_NAME "Lucida Bright Italic"
X_HEIGHT 9
CAP_HEIGHT 13
ENDPROPERTIES
CHARS 723
STARTCHAR char0
ENCODING 0
SWIDTH 776 0
DWIDTH 14 0
BBX 15 13 0 0
BITMAP
AAAA
0000
8002
0000
8002
0000
8002
0000
8002
0000
8002
0000
AAAA
ENDCHAR
STARTCHAR space
ENCODING 32
SWIDTH 333 0
DWIDTH 5 0
BBX 1 1 0 0
BITMAP
00
ENDCHAR
STARTCHAR exclam
ENCODING 33
SWIDTH 265 0
DWIDTH 5 0
BBX 4 13 2 0
BITMAP
30
30
30
20
20
20
40
40
40
40
00
00
C0
ENDCHAR
STARTCHAR quotedbl
ENCODING 34
SWIDTH 377 0
DWIDTH 7 0
BBX 5 4 3 9
BITMAP
D8
D0
90
90
ENDCHAR
STARTCHAR numbersign
ENCODING 35
SWIDTH 608 0
DWIDTH 11 0
BBX 11 13 1 0
BITMAP
0220
0240
0440
0480
7FE0
0900
1100
1200
FFC0
2400
4400
4800
8800
ENDCHAR
STARTCHAR dollar
ENCODING 36
SWIDTH 608 0
DWIDTH 11 0
BBX 9 15 3 -1
BITMAP
0400
1F80
3580
6900
6800
6800
3800
1C00
1E00
1300
1300
9200
9400
F800
2000
ENDCHAR
STARTCHAR percent
ENCODING 37
SWIDTH 759 0
DWIDTH 14 0
BBX 13 13 2 0
BITMAP
3C18
2420
4460
44C0
4C80
3900
02E0
0590
0910
1310
2330
6120
C1C0
ENDCHAR
STARTCHAR ampersand
ENCODING 38
SWIDTH 727 0
DWIDTH 13 0
BBX 13 13 1 0
BITMAP
0380
04C0
0CC0
0CC0
0D80
1E00
64F8
C620
C220
C340
C1C0
6180
3EE0
ENDCHAR
STARTCHAR quotesingle
ENCODING 39
SWIDTH 231 0
DWIDTH 4 0
BBX 2 4 3 9
BITMAP
C0
C0
40
40
ENDCHAR
STARTCHAR parenleft
ENCODING 40
SWIDTH 310 0
DWIDTH 6 0
BBX 6 16 2 -3
BITMAP
04
08
10
20
20
60
40
C0
C0
C0
C0
C0
80
40
40
20
ENDCHAR
STARTCHAR parenright
ENCODING 41
SWIDTH 310 0
DWIDTH 6 0
BBX 6 16 0 -3
BITMAP
10
08
08
0C
0C
0C
0C
0C
0C
08
18
10
10
20
40
80
ENDCHAR
STARTCHAR asterisk
ENCODING 42
SWIDTH 458 0
DWIDTH 8 0
BBX 7 7 3 6
BITMAP
18
10
D6
2C
30
C8
48
ENDCHAR
STARTCHAR plus
ENCODING 43
SWIDTH 608 0
DWIDTH 11 0
BBX 11 11 1 0
BITMAP
0200
0200
0400
0400
0400
FFE0
0400
0800
0800
0800
0800
ENDCHAR
STARTCHAR comma
ENCODING 44
SWIDTH 265 0
DWIDTH 5 0
BBX 3 5 1 -3
BITMAP
60
60
60
40
C0
ENDCHAR
STARTCHAR hyphen
ENCODING 45
SWIDTH 313 0
DWIDTH 6 0
BBX 4 1 2 5
BITMAP
F0
ENDCHAR
STARTCHAR period
ENCODING 46
SWIDTH 265 0
DWIDTH 5 0
BBX 3 2 1 0
BITMAP
E0
E0
ENDCHAR
STARTCHAR slash
ENCODING 47
SWIDTH 458 0
DWIDTH 8 0
BBX 11 16 0 -3
BITMAP
0020
0040
0080
0080
0100
0300
0200
0400
0400
0800
1800
1000
2000
2000
4000
8000
ENDCHAR
STARTCHAR zero
ENCODING 48
SWIDTH 608 0
DWIDTH 11 0
BBX 10 13 2 0
BITMAP
0F00
1980
3080
60C0
60C0
C0C0
C080
C180
C180
C100
C300
6600
3C00
ENDCHAR
STARTCHAR one
ENCODING 49
SWIDTH 608 0
DWIDTH 11 0
BBX 7 13 2 0
BITMAP
1E
06
04
04
0C
0C
0C
08
18
18
18
18
FE
ENDCHAR
STARTCHAR two
ENCODING 50
SWIDTH 608 0
DWIDTH 11 0
BBX 10 13 2 0
BITMAP
0F80
11C0
20C0
00C0
00C0
0180
0300
0400
1800
2000
6000
4000
FF00
ENDCHAR
STARTCHAR three
ENCODING 51
SWIDTH 608 0
DWIDTH 11 0
BBX 9 13 2 0
BITMAP
1F00
1180
2180
0180
0180
0300
3C00
0200
0300
0300
8300
8600
FC00
ENDCHAR
STARTCHAR four
ENCODING 52
SWIDTH 608 0
DWIDTH 11 0
BBX 9 13 1 0
BITMAP
0080
0380
0500
0900
1300
2300
2300
4200
FF80
0600
0600
0600
1F00
ENDCHAR
STARTCHAR five
ENCODING 53
SWIDTH 608 0
DWIDTH 11 0
BBX 10 13 2 0
BITMAP
1FC0
2000
2000
2000
3C00
0600
0300
0300
0300
0300
8300
8600
F800
ENDCHAR
STARTCHAR six
ENCODING 54
SWIDTH 608 0
DWIDTH 11 0
BBX 10 13 2 0
BITMAP
0780
18C0
3080
6000
6000
7F00
E300
C180
C180
C180
C300
6600
3C00
ENDCHAR
STARTCHAR seven
ENCODING 55
SWIDTH 608 0
DWIDTH 11 0
BBX 10 13 3 0
BITMAP
7FC0
0080
0080
0100
0200
0400
0800
1000
3000
2000
6000
C000
C000
ENDCHAR
STARTCHAR eight
ENCODING 56
SWIDTH 608 0
DWIDTH 11 0
BBX 9 13 2 0
BITMAP
0F00
1180
3180
2180
3100
1E00
3E00
4700
C300
C300
C300
C600
7C00
ENDCHAR
STARTCHAR nine
ENCODING 57
SWIDTH 608 0
DWIDTH 11 0
BBX 10 13 2 0
BITMAP
0F00
1180
2080
60C0
60C0
60C0
6180
3F80
0180
0300
8300
8600
7800
ENDCHAR
STARTCHAR colon
ENCODING 58
SWIDTH 265 0
DWIDTH 5 0
BBX 4 9 1 0
BITMAP
30
70
00
00
00
00
00
E0
C0
ENDCHAR
STARTCHAR semicolon
ENCODING 59
SWIDTH 265 0
DWIDTH 5 0
BBX 5 12 1 -3
BITMAP
18
38
00
00
00
00
00
60
60
60
60
C0
ENDCHAR
STARTCHAR less
ENCODING 60
SWIDTH 608 0
DWIDTH 11 0
BBX 11 11 2 0
BITMAP
0020
00C0
0300
0C00
3000
C000
3000
1800
0600
0100
0080
ENDCHAR
STARTCHAR equal
ENCODING 61
SWIDTH 608 0
DWIDTH 11 0
BBX 11 4 1 3
BITMAP
7FE0
0000
0000
FFC0
ENDCHAR
STARTCHAR greater
ENCODING 62
SWIDTH 608 0
DWIDTH 11 0
BBX 11 11 0 0
BITMAP
2000
1000
0C00
0300
0180
0060
0180
0600
1800
6000
8000
ENDCHAR
STARTCHAR question
ENCODING 63
SWIDTH 471 0
DWIDTH 8 0
BBX 7 13 3 0
BITMAP
7C
C6
86
06
04
08
10
20
60
40
00
00
C0
ENDCHAR
STARTCHAR at
ENCODING 64
SWIDTH 861 0
DWIDTH 16 0
BBX 14 13 2 0
BITMAP
03E0
0C18
3004
23E4
4444
8844
88C4
88C4
89C8
8E70
4000
2080
1F00
ENDCHAR
STARTCHAR A
ENCODING 65
SWIDTH 747 0
DWIDTH 13 0
BBX 13 13 0 0
BITMAP
00C0
00C0
01C0
03C0
02C0
0460
0C60
0860
1FE0
1060
2020
4030
F0F8
ENDCHAR
STARTCHAR B
ENCODING 66
SWIDTH 606 0
DWIDTH 11 0
BBX 11 13 0 0
BITMAP
3FC0
0C60
0C60
0860
1840
1880
1F00
19C0
10C0
30C0
30C0
31C0
FF00
ENDCHAR
STARTCHAR C
ENCODING 67
SWIDTH 714 0
DWIDTH 13 0
BBX 12 13 2 0
BITMAP
07F0
1C30
3030
3000
6000
6000
C000
C000
C000
C000
E000
70C0
3F00
ENDCHAR
STARTCHAR D
ENCODING 68
SWIDTH 770 0
DWIDTH 14 0
BBX 14 13 0 0
BITMAP
3FF0
0C38
0C1C
080C
180C
180C
180C
180C
3018
3018
3030
30E0
FF80
ENDCHAR
STARTCHAR E
ENCODING 69
SWIDTH 569 0
DWIDTH 10 0
BBX 11 13 1 0
BITMAP
3FE0
1820
1820
1800
1800
1880
1F80
3100
3000
3000
3080
3080
FF80
ENDCHAR
STARTCHAR F
ENCODING 70
SWIDTH 551 0
DWIDTH 10 0
BBX 11 13 1 0
BITMAP
3FE0
1820
1820
1800
1800
1880
1F80
3100
3000
3000
3000
3000
F800
ENDCHAR
STARTCHAR G
ENCODING 71
SWIDTH 756 0
DWIDTH 14 0
BBX 12 13 2 0
BITMAP
07F0
1C30
3020
3000
6000
4000
C000
C1F0
C0C0
C0C0
E0C0
70C0
3F00
ENDCHAR
STARTCHAR H
ENCODING 72
SWIDTH 776 0
DWIDTH 14 0
BBX 16 13 0 0
BITMAP
1F1F
0C0C
0C0C
080C
1808
1818
1FF8
1818
1018
3010
3030
3030
F8F8
ENDCHAR
STARTCHAR I
ENCODING 73
SWIDTH 325 0
DWIDTH 6 0
BBX 8 13 0 0
BITMAP
1F
0C
0C
0C
08
18
18
18
10
30
30
30
F8
ENDCHAR
STARTCHAR J
ENCODING 74
SWIDTH 422 0
DWIDTH 8 0
BBX 10 16 0 -3
BITMAP
07C0
0380
0300
0300
0300
0200
0600
0600
0600
0600
0400
0C00
0C00
CC00
9800
F000
ENDCHAR
STARTCHAR K
ENCODING 75
SWIDTH 698 0
DWIDTH 13 0
BBX 14 13 0 0
BITMAP
1F3C
0C18
0C20
0CC0
1980
1A00
1E00
1B00
1380
31C0
30C0
3060
F9F0
ENDCHAR
STARTCHAR L
ENCODING 76
SWIDTH 572 0
DWIDTH 10 0
BBX 10 13 0 0
BITMAP
3F00
0C00
0C00
0800
1800
1800
1800
1800
3000
3000
3040
30C0
FFC0
ENDCHAR
STARTCHAR M
ENCODING 77
SWIDTH 865 0
DWIDTH 16 0
BBX 17 13 1 0
BITMAP
3C0780
0C0600
0C0E00
161E00
161600
162400
126C00
134C00
238C00
238800
210800
201800
F03E00
ENDCHAR
STARTCHAR N
ENCODING 78
SWIDTH 762 0
DWIDTH 14 0
BBX 16 13 0 0
BITMAP
3C1F
0C04
0E04
1608
1308
1308
1188
10C8
20D0
2070
2070
2030
F020
ENDCHAR
STARTCHAR O
ENCODING 79
SWIDTH 783 0
DWIDTH 14 0
BBX 13 13 2 0
BITMAP
07C0
0C70
3030
2018
6018
4018
C018
C030
C030
C060
C0C0
6180
3E00
ENDCHAR
STARTCHAR P
ENCODING 80
SWIDTH 579 0
DWIDTH 10 0
BBX 12 13 0 0
BITMAP
1FE0
0C30
0C30
0C30
1830
1860
18C0
1F80
1800
3000
3000
3000
FC00
ENDCHAR
STARTCHAR Q
ENCODING 81
SWIDTH 788 0
DWIDTH 14 0
BBX 14 16 2 -3
BITMAP
07C0
0C70
3030
2018
6018
4018
C010
C030
C030
C060
C0E0
61C0
3F00
0300
0080
007C
ENDCHAR
STARTCHAR R
ENCODING 82
SWIDTH 686 0
DWIDTH 12 0
BBX 12 13 0 0
BITMAP
1FE0
0C60
0C30
0820
1860
18C0
1F00
1B00
1180
3180
30C0
30E0
F870
ENDCHAR
STARTCHAR S
ENCODING 83
SWIDTH 549 0
DWIDTH 10 0
BBX 10 13 1 0
BITMAP
0F80
18C0
3040
3040
3800
1C00
0E00
0300
0180
8180
8180
C300
7C00
ENDCHAR
STARTCHAR T
ENCODING 84
SWIDTH 663 0
DWIDTH 12 0
BBX 12 13 2 0
BITMAP
FFF0
C610
8610
0400
0C00
0C00
0C00
0C00
0800
1800
1800
1800
7E00
ENDCHAR
STARTCHAR U
ENCODING 85
SWIDTH 727 0
DWIDTH 13 0
BBX 13 13 3 0
BITMAP
F878
7020
6020
6020
6040
6040
4040
C040
C040
C080
C080
6100
3E00
ENDCHAR
STARTCHAR V
ENCODING 86
SWIDTH 656 0
DWIDTH 12 0
BBX 13 13 2 0
BITMAP
F838
6010
6020
2060
3040
3080
3180
3100
1200
1A00
1C00
1800
1800
ENDCHAR
STARTCHAR W
ENCODING 87
SWIDTH 878 0
DWIDTH 16 0
BBX 17 13 2 0
BITMAP
F88780
608300
61C200
61C400
62C400
62C800
64C800
24D000
28D000
28E000
30E000
30C000
204000
ENDCHAR
STARTCHAR X
ENCODING 88
SWIDTH 624 0
DWIDTH 11 0
BBX 14 13 0 0
BITMAP
1F1C
0C18
0630
0660
02C0
0380
0380
0380
0D80
08C0
10C0
2060
F1F0
ENDCHAR
STARTCHAR Y
ENCODING 89
SWIDTH 663 0
DWIDTH 12 0
BBX 12 13 2 0
BITMAP
F870
6060
3040
3080
1900
1A00
1C00
0800
1800
1800
1800
3800
7C00
ENDCHAR
STARTCHAR Z
ENCODING 90
SWIDTH 633 0
DWIDTH 11 0
BBX 12 13 1 0
BITMAP
1FF0
1060
30C0
01C0
0180
0300
0600
0C00
1800
3800
3040
6040
FFC0
ENDCHAR
STARTCHAR bracketleft
ENCODING 91
SWIDTH 310 0
DWIDTH 6 0
BBX 7 16 1 -3
BITMAP
1E
18
18
10
30
30
30
20
20
60
60
40
40
40
C0
F0
ENDCHAR
STARTCHAR backslash
ENCODING 92
SWIDTH 458 0
DWIDTH 8 0
BBX 5 16 3 -3
BITMAP
80
80
40
40
40
40
20
20
20
20
10
10
10
10
08
08
ENDCHAR
STARTCHAR bracketright
ENCODING 93
SWIDTH 310 0
DWIDTH 6 0
BBX 7 16 0 -3
BITMAP
1E
06
04
04
04
0C
0C
08
08
18
18
18
10
30
30
F0
ENDCHAR
STARTCHAR asciicircum
ENCODING 94
SWIDTH 608 0
DWIDTH 11 0
BBX 11 11 0 2
BITMAP
0100
0100
0300
0480
0480
0880
10C0
3040
2040
4040
C020
ENDCHAR
STARTCHAR underscore
ENCODING 95
SWIDTH 500 0
DWIDTH 9 0
BBX 7 1 1 -1
BITMAP
FE
ENDCHAR
STARTCHAR grave
ENCODING 96
SWIDTH 560 0
DWIDTH 10 0
BBX 3 3 6 10
BITMAP
C0
40
20
ENDCHAR
STARTCHAR a
ENCODING 97
SWIDTH 608 0
DWIDTH 11 0
BBX 10 9 1 0
BITMAP
0FC0
10C0
2080
6180
4180
C380
C580
C900
73C0
ENDCHAR
STARTCHAR b
ENCODING 98
SWIDTH 596 0
DWIDTH 11 0
BBX 10 13 1 0
BITMAP
7800
1000
3000
3000
3380
24C0
28C0
70C0
6080
6180
4100
C200
FC00
ENDCHAR
STARTCHAR c
ENCODING 99
SWIDTH 487 0
DWIDTH 9 0
BBX 8 9 2 0
BITMAP
0F
31
61
40
C0
C0
C0
C2
7C
ENDCHAR
STARTCHAR d
ENCODING 100
SWIDTH 608 0
DWIDTH 11 0
BBX 11 13 1 0
BITMAP
01E0
0060
0040
00C0
0FC0
10C0
20C0
6080
4180
C380
C580
C900
73C0
ENDCHAR
STARTCHAR e
ENCODING 101
SWIDTH 518 0
DWIDTH 9 0
BBX 8 9 2 0
BITMAP
0E
33
63
42
FC
C0
C1
E6
7C
ENDCHAR
STARTCHAR f
ENCODING 102
SWIDTH 380 0
DWIDTH 7 0
BBX 9 17 1 -3
BITMAP
0780
0880
0880
1800
1000
7E00
3000
3000
3000
2000
6000
6000
6000
6000
4000
C000
C000
ENDCHAR
STARTCHAR g
ENCODING 103
SWIDTH 602 0
DWIDTH 11 0
BBX 10 12 1 -3
BITMAP
07C0
18C0
30C0
2080
6180
6380
6380
6500
7B00
0300
C200
7C00
ENDCHAR
STARTCHAR h
ENCODING 104
SWIDTH 631 0
DWIDTH 11 0
BBX 10 13 2 0
BITMAP
7800
1000
3000
3000
3380
24C0
68C0
7080
6180
6180
4180
C180
C3C0
ENDCHAR
STARTCHAR i
ENCODING 105
SWIDTH 289 0
DWIDTH 5 0
BBX 4 13 2 0
BITMAP
30
00
00
00
E0
60
60
60
40
40
40
C0
E0
ENDCHAR
STARTCHAR j
ENCODING 106
SWIDTH 343 0
DWIDTH 6 0
BBX 9 16 -1 -3
BITMAP
0180
0000
0000
0000
0700
0300
0300
0300
0200
0600
0600
0600
0400
8C00
8800
F000
ENDCHAR
STARTCHAR k
ENCODING 107
SWIDTH 560 0
DWIDTH 10 0
BBX 9 13 2 0
BITMAP
7000
3000
3000
3000
2180
2300
6600
7800
7800
4C00
4E00
C600
C380
ENDCHAR
STARTCHAR l
ENCODING 108
SWIDTH 289 0
DWIDTH 5 0
BBX 5 13 1 0
BITMAP
78
18
10
30
30
30
20
60
60
60
40
C0
F0
ENDCHAR
STARTCHAR m
ENCODING 109
SWIDTH 944 0
DWIDTH 17 0
BBX 15 9 2 0
BITMAP
F39C
2DB6
79E6
71C4
618C
410C
430C
C30C
C30E
ENDCHAR
STARTCHAR n
ENCODING 110
SWIDTH 631 0
DWIDTH 11 0
BBX 10 9 2 0
BITMAP
F380
24C0
68C0
7080
6180
6180
4180
C180
C3C0
ENDCHAR
STARTCHAR o
ENCODING 111
SWIDTH 560 0
DWIDTH 10 0
BBX 9 9 2 0
BITMAP
0F00
3380
6180
4180
C180
C300
C300
C600
7800
ENDCHAR
STARTCHAR p
ENCODING 112
SWIDTH 608 0
DWIDTH 11 0
BBX 10 12 1 -3
BITMAP
7380
34C0
38C0
30C0
3080
6180
6100
6200
7C00
4000
C000
C000
ENDCHAR
STARTCHAR q
ENCODING 113
SWIDTH 599 0
DWIDTH 11 0
BBX 10 12 1 -3
BITMAP
0FC0
10C0
2080
6180
4180
C380
C580
C900
7300
0300
0300
0200
ENDCHAR
STARTCHAR r
ENCODING 114
SWIDTH 470 0
DWIDTH 8 0
BBX 8 9 2 0
BITMAP
F3
2E
78
70
60
40
40
C0
C0
ENDCHAR
STARTCHAR s
ENCODING 115
SWIDTH 440 0
DWIDTH 8 0
BBX 8 9 1 0
BITMAP
1F
31
31
38
1C
06
82
C6
7C
ENDCHAR
STARTCHAR t
ENCODING 116
SWIDTH 355 0
DWIDTH 6 0
BBX 6 12 2 0
BITMAP
30
30
30
FC
60
60
60
40
C0
C0
C0
70
ENDCHAR
STARTCHAR u
ENCODING 117
SWIDTH 630 0
DWIDTH 11 0
BBX 10 9 2 0
BITMAP
F3C0
60C0
6080
6180
6180
4380
C580
C900
73C0
ENDCHAR
STARTCHAR v
ENCODING 118
SWIDTH 558 0
DWIDTH 10 0
BBX 10 9 1 0
BITMAP
E0C0
3040
30C0
1080
1900
1A00
1E00
1C00
1800
ENDCHAR
STARTCHAR w
ENCODING 119
SWIDTH 805 0
DWIDTH 14 0
BBX 14 9 1 0
BITMAP
E10C
6184
338C
3388
3690
14F0
18E0
18C0
1080
ENDCHAR
STARTCHAR x
ENCODING 120
SWIDTH 510 0
DWIDTH 9 0
BBX 9 9 1 0
BITMAP
7180
3180
1B00
1C00
0C00
3C00
6600
C700
C380
ENDCHAR
STARTCHAR y
ENCODING 121
SWIDTH 558 0
DWIDTH 10 0
BBX 11 12 0 -3
BITMAP
7060
1820
1860
0840
0C80
0D00
0E00
0C00
0800
1000
3000
E000
ENDCHAR
STARTCHAR z
ENCODING 122
SWIDTH 536 0
DWIDTH 10 0
BBX 9 9 1 0
BITMAP
3F80
2300
2600
0C00
1800
1800
3100
6100
FF00
ENDCHAR
STARTCHAR braceleft
ENCODING 123
SWIDTH 337 0
DWIDTH 6 0
BBX 6 16 2 -3
BITMAP
0C
18
10
30
10
30
30
20
C0
60
60
60
C0
C0
C0
60
ENDCHAR
STARTCHAR bar
ENCODING 124
SWIDTH 241 0
DWIDTH 4 0
BBX 4 16 1 -3
BITMAP
10
10
30
20
20
20
20
60
60
40
40
40
40
C0
80
80
ENDCHAR
STARTCHAR braceright
ENCODING 125
SWIDTH 337 0
DWIDTH 6 0
BBX 6 16 2 -3
BITMAP
18
04
04
0C
08
18
18
0C
10
10
30
30
30
30
20
C0
ENDCHAR
STARTCHAR asciitilde
ENCODING 126
SWIDTH 608 0
DWIDTH 11 0
BBX 11 4 1 3
BITMAP
7820
8C20
8640
83C0
ENDCHAR
STARTCHAR space
ENCODING 160
SWIDTH 333 0
DWIDTH 5 0
BBX 1 1 0 0
BITMAP
00
ENDCHAR
STARTCHAR exclamdown
ENCODING 161
SWIDTH 265 0
DWIDTH 5 0
BBX 4 12 1 -3
BITMAP
30
00
00
20
20
20
40
40
40
40
C0
C0
ENDCHAR
STARTCHAR cent
ENCODING 162
SWIDTH 608 0
DWIDTH 11 0
BBX 8 13 3 0
BITMAP
02
07
1D
29
48
C8
C8
C8
C8
CA
7C
10
10
ENDCHAR
STARTCHAR sterling
ENCODING 163
SWIDTH 608 0
DWIDTH 11 0
BBX 10 13 2 0
BITMAP
03C0
0440
0C40
0800
1800
1800
7E00
1800
1000
3000
2000
4000
FF00
ENDCHAR
STARTCHAR currency
ENCODING 164
SWIDTH 608 0
DWIDTH 11 0
BBX 12 11 1 1
BITMAP
2010
1720
18C0
1040
2040
2040
2040
2080
3180
6EC0
8040
ENDCHAR
STARTCHAR yen
ENCODING 165
SWIDTH 608 0
DWIDTH 11 0
BBX 12 13 2 0
BITMAP
F870
6040
3180
1900
1E00
7F00
0800
1800
7F00
1800
1800
3800
7C00
ENDCHAR
STARTCHAR brokenbar
ENCODING 166
SWIDTH 241 0
DWIDTH 4 0
BBX 4 16 1 -3
BITMAP
10
10
30
20
20
20
60
00
00
60
40
40
40
C0
80
80
ENDCHAR
STARTCHAR section
ENCODING 167
SWIDTH 608 0
DWIDTH 11 0
BBX 10 16 1 -3
BITMAP
0FC0
1840
3040
3000
3800
1E00
2700
6180
6180
3900
1E00
0300
0100
8300
C600
7C00
ENDCHAR
STARTCHAR dieresis
ENCODING 168
SWIDTH 560 0
DWIDTH 10 0
BBX 5 1 5 12
BITMAP
D8
ENDCHAR
STARTCHAR copyright
ENCODING 169
SWIDTH 843 0
DWIDTH 15 0
BBX 14 13 2 0
BITMAP
0FC0
3830
6008
43E4
8424
8804
8804
8804
8C04
4784
6008
3830
0FC0
ENDCHAR
STARTCHAR ordfeminine
ENCODING 170
SWIDTH 458 0
DWIDTH 7 0
BBX 7 7 2 6
BITMAP
3E
66
44
CC
DC
FC
EE
ENDCHAR
STARTCHAR guillemotleft
ENCODING 171
SWIDTH 525 0
DWIDTH 9 0
BBX 8 9 2 0
BITMAP
09
12
26
4C
D8
48
44
24
22
ENDCHAR
STARTCHAR logicalnot
ENCODING 172
SWIDTH 608 0
DWIDTH 11 0
BBX 11 4 1 3
BITMAP
FFE0
0020
0040
0040
ENDCHAR
STARTCHAR hyphen
ENCODING 173
SWIDTH 313 0
DWIDTH 6 0
BBX 4 1 2 5
BITMAP
F0
ENDCHAR
STARTCHAR registered
ENCODING 174
SWIDTH 608 0
DWIDTH 11 0
BBX 8 8 3 5
BITMAP
3C
46
9D
95
99
AD
46
3C
ENDCHAR
STARTCHAR macron
ENCODING 175
SWIDTH 560 0
DWIDTH 10 0
BBX 5 1 5 12
BITMAP
F8
ENDCHAR
STARTCHAR degree
ENCODING 176
SWIDTH 277 0
DWIDTH 5 0
BBX 3 3 3 10
BITMAP
E0
A0
E0
ENDCHAR
STARTCHAR plusminus
ENCODING 177
SWIDTH 608 0
DWIDTH 11 0
BBX 12 11 0 0
BITMAP
0100
0200
0200
0200
7FF0
0200
0200
0400
0000
0000
FFE0
ENDCHAR
STARTCHAR twosuperior
ENCODING 178
SWIDTH 365 0
DWIDTH 7 0
BBX 6 9 -8 4
BITMAP
38
44
04
04
18
20
60
40
F8
ENDCHAR
STARTCHAR threesuperior
ENCODING 179
SWIDTH 365 0
DWIDTH 7 0
BBX 6 9 -9 4
BITMAP
38
48
0C
08
70
08
08
98
F0
ENDCHAR
STARTCHAR acute
ENCODING 180
SWIDTH 560 0
DWIDTH 10 0
BBX 4 3 6 10
BITMAP
30
40
80
ENDCHAR
STARTCHAR mu
ENCODING 181
SWIDTH 663 0
DWIDTH 12 0
BBX 10 12 2 -3
BITMAP
71C0
30C0
3080
2080
6180
6180
6380
6500
7BC0
C000
C000
C000
ENDCHAR
STARTCHAR paragraph
ENCODING 182
SWIDTH 608 0
DWIDTH 11 0
BBX 8 16 3 -3
BITMAP
7F
FA
FA
FA
F2
72
34
14
14
24
24
28
28
28
28
68
ENDCHAR
STARTCHAR periodcentered
ENCODING 183
SWIDTH 608 0
DWIDTH 11 0
BBX 2 1 6 5
BITMAP
C0
ENDCHAR
STARTCHAR cedilla
ENCODING 184
SWIDTH 560 0
DWIDTH 10 0
BBX 3 3 3 -3
BITMAP
60
20
E0
ENDCHAR
STARTCHAR onesuperior
ENCODING 185
SWIDTH 365 0
DWIDTH 7 0
BBX 4 9 -9 4
BITMAP
70
10
10
20
20
20
20
20
F0
ENDCHAR
STARTCHAR ordmasculine
ENCODING 186
SWIDTH 458 0
DWIDTH 7 0
BBX 7 7 2 6
BITMAP
1C
66
46
C6
C4
C8
70
ENDCHAR
STARTCHAR guillemotright
ENCODING 187
SWIDTH 525 0
DWIDTH 9 0
BBX 8 9 2 0
BITMAP
44
24
22
12
1B
32
64
48
90
ENDCHAR
STARTCHAR onequarter
ENCODING 188
SWIDTH 766 0
DWIDTH 15 0
BBX 14 13 3 0
BITMAP
700C
1018
1030
2020
204C
2094
2128
2248
F488
08FC
1808
3010
6038
ENDCHAR
STARTCHAR onehalf
ENCODING 189
SWIDTH 766 0
DWIDTH 15 0
BBX 14 13 3 0
BITMAP
700C
1018
1030
2020
2078
20C4
2104
2204
F418
0820
1860
3040
60F8
ENDCHAR
STARTCHAR threequarters
ENCODING 190
SWIDTH 766 0
DWIDTH 15 0
BBX 14 13 3 0
BITMAP
380C
4818
0C30
0820
704C
0894
0928
9A48
F488
08FC
1808
3010
6038
ENDCHAR
STARTCHAR questiondown
ENCODING 191
SWIDTH 471 0
DWIDTH 8 0
BBX 7 13 1 -4
BITMAP
06
00
00
04
04
0C
18
30
60
C0
C2
C6
7C
ENDCHAR
STARTCHAR Agrave
ENCODING 192
SWIDTH 747 0
DWIDTH 13 0
BBX 13 17 0 0
BITMAP
00C0
0040
0020
0000
00C0
00C0
01C0
03C0
02C0
0460
0C60
0860
1FE0
1060
2020
4030
F0F8
ENDCHAR
STARTCHAR Aacute
ENCODING 193
SWIDTH 747 0
DWIDTH 13 0
BBX 13 17 0 0
BITMAP
0030
0040
0080
0000
00C0
00C0
01C0
03C0
02C0
0460
0C60
0860
1FE0
1060
2020
4030
F0F8
ENDCHAR
STARTCHAR Acircumflex
ENCODING 194
SWIDTH 747 0
DWIDTH 13 0
BBX 13 17 0 0
BITMAP
00E0
01A0
0210
0000
00C0
00C0
01C0
03C0
02C0
0460
0C60
0860
1FE0
1060
2020
4030
F0F8
ENDCHAR
STARTCHAR Atilde
ENCODING 195
SWIDTH 747 0
DWIDTH 13 0
BBX 13 16 0 0
BITMAP
00C8
0130
0000
00C0
00C0
01C0
03C0
02C0
0460
0C60
0860
1FE0
1060
2020
4030
F0F8
ENDCHAR
STARTCHAR Adieresis
ENCODING 196
SWIDTH 747 0
DWIDTH 13 0
BBX 13 15 0 0
BITMAP
01B0
0000
00C0
00C0
01C0
03C0
02C0
0460
0C60
0860
1FE0
1060
2020
4030
F0F8
ENDCHAR
STARTCHAR Aring
ENCODING 197
SWIDTH 747 0
DWIDTH 13 0
BBX 13 17 0 0
BITMAP
00E0
00A0
00E0
0000
00C0
00C0
01C0
03C0
02C0
0460
0C60
0860
1FE0
1060
2020
4030
F0F8
ENDCHAR
STARTCHAR AE
ENCODING 198
SWIDTH 907 0
DWIDTH 16 0
BBX 18 13 0 0
BITMAP
003FC0
007040
007040
00B000
013000
022100
047F00
046000
0FE000
106000
204000
40C100
E3FF00
ENDCHAR
STARTCHAR Ccedilla
ENCODING 199
SWIDTH 714 0
DWIDTH 13 0
BBX 12 16 2 -3
BITMAP
07F0
1C30
3030
3000
6000
6000
C000
C000
C000
C000
E000
70C0
3F00
1000
0800
3800
ENDCHAR
STARTCHAR Egrave
ENCODING 200
SWIDTH 569 0
DWIDTH 10 0
BBX 11 17 1 0
BITMAP
0300
0100
0080
0000
3FE0
1820
1820
1800
1800
1880
1F80
3100
3000
3000
3080
3080
FF80
ENDCHAR
STARTCHAR Eacute
ENCODING 201
SWIDTH 569 0
DWIDTH 10 0
BBX 11 17 1 0
BITMAP
00C0
0100
0200
0000
3FE0
1820
1820
1800
1800
1880
1F80
3100
3000
3000
3080
3080
FF80
ENDCHAR
STARTCHAR Ecircumflex
ENCODING 202
SWIDTH 569 0
DWIDTH 10 0
BBX 11 17 1 0
BITMAP
0380
0680
0840
0000
3FE0
1820
1820
1800
1800
1880
1F80
3100
3000
3000
3080
3080
FF80
ENDCHAR
STARTCHAR Edieresis
ENCODING 203
SWIDTH 569 0
DWIDTH 10 0
BBX 11 15 1 0
BITMAP
06C0
0000
3FE0
1820
1820
1800
1800
1880
1F80
3100
3000
3000
3080
3080
FF80
ENDCHAR
STARTCHAR Igrave
ENCODING 204
SWIDTH 325 0
DWIDTH 6 0
BBX 8 17 0 0
BITMAP
0C
04
02
00
1F
0C
0C
0C
08
18
18
18
10
30
30
30
F8
ENDCHAR
STARTCHAR Iacute
ENCODING 205
SWIDTH 325 0
DWIDTH 6 0
BBX 9 17 0 0
BITMAP
0180
0200
0400
0000
1F00
0C00
0C00
0C00
0800
1800
1800
1800
1000
3000
3000
3000
F800
ENDCHAR
STARTCHAR Icircumflex
ENCODING 206
SWIDTH 325 0
DWIDTH 6 0
BBX 9 17 0 0
BITMAP
0700
0D00
1080
0000
1F00
0C00
0C00
0C00
0800
1800
1800
1800
1000
3000
3000
3000
F800
ENDCHAR
STARTCHAR Idieresis
ENCODING 207
SWIDTH 325 0
DWIDTH 6 0
BBX 8 15 0 0
BITMAP
1B
00
1F
0C
0C
0C
08
18
18
18
10
30
30
30
F8
ENDCHAR
STARTCHAR Eth
ENCODING 208
SWIDTH 770 0
DWIDTH 14 0
BBX 14 13 0 0
BITMAP
3FF0
0C38
0C1C
080C
180C
180C
7F0C
180C
1018
3018
3030
30E0
FF80
ENDCHAR
STARTCHAR Ntilde
ENCODING 209
SWIDTH 762 0
DWIDTH 14 0
BBX 16 16 0 0
BITMAP
00C8
0130
0000
3C1F
0C04
0E04
1608
1308
1308
1188
10C8
20D0
2070
2070
2030
F020
ENDCHAR
STARTCHAR Ograve
ENCODING 210
SWIDTH 783 0
DWIDTH 14 0
BBX 13 17 2 0
BITMAP
0300
0100
0080
0000
07C0
0C70
3030
2018
6018
4018
C018
C030
C030
C060
C0C0
6180
3E00
ENDCHAR
STARTCHAR Oacute
ENCODING 211
SWIDTH 783 0
DWIDTH 14 0
BBX 13 17 2 0
BITMAP
0060
0080
0100
0000
07C0
0C70
3030
2018
6018
4018
C018
C030
C030
C060
C0C0
6180
3E00
ENDCHAR
STARTCHAR Ocircumflex
ENCODING 212
SWIDTH 783 0
DWIDTH 14 0
BBX 13 17 2 0
BITMAP
01C0
0340
0420
0000
07C0
0C70
3030
2018
6018
4018
C018
C030
C030
C060
C0C0
6180
3E00
ENDCHAR
STARTCHAR Otilde
ENCODING 213
SWIDTH 783 0
DWIDTH 14 0
BBX 13 16 2 0
BITMAP
0320
04C0
0000
07C0
0C70
3030
2018
6018
4018
C018
C030
C030
C060
C0C0
6180
3E00
ENDCHAR
STARTCHAR Odieresis
ENCODING 214
SWIDTH 783 0
DWIDTH 14 0
BBX 13 15 2 0
BITMAP
0360
0000
07C0
0C70
3030
2018
6018
4018
C018
C030
C030
C060
C0C0
6180
3E00
ENDCHAR
STARTCHAR multiply
ENCODING 215
SWIDTH 608 0
DWIDTH 11 0
BBX 12 11 1 0
BITMAP
2010
3020
1040
0880
0500
0600
0E00
1100
2080
40C0
8040
ENDCHAR
STARTCHAR Oslash
ENCODING 216
SWIDTH 783 0
DWIDTH 14 0
BBX 15 13 1 0
BITMAP
03E6
0638
0818
181C
306C
208C
610C
6218
6418
7830
7020
30C0
CF80
ENDCHAR
STARTCHAR Ugrave
ENCODING 217
SWIDTH 727 0
DWIDTH 13 0
BBX 13 17 3 0
BITMAP
0600
0200
0100
0000
F878
7020
6020
6020
6040
6040
4040
C040
C040
C080
C080
6100
3E00
ENDCHAR
STARTCHAR Uacute
ENCODING 218
SWIDTH 727 0
DWIDTH 13 0
BBX 13 17 3 0
BITMAP
00C0
0100
0200
0000
F878
7020
6020
6020
6040
6040
4040
C040
C040
C080
C080
6100
3E00
ENDCHAR
STARTCHAR Ucircumflex
ENCODING 219
SWIDTH 727 0
DWIDTH 13 0
BBX 13 17 3 0
BITMAP
0380
0680
0840
0000
F878
7020
6020
6020
6040
6040
4040
C040
C040
C080
C080
6100
3E00
ENDCHAR
STARTCHAR Udieresis
ENCODING 220
SWIDTH 727 0
DWIDTH 13 0
BBX 13 15 3 0
BITMAP
06C0
0000
F878
7020
6020
6020
6040
6040
4040
C040
C040
C080
C080
6100
3E00
ENDCHAR
STARTCHAR Yacute
ENCODING 221
SWIDTH 663 0
DWIDTH 12 0
BBX 12 17 2 0
BITMAP
0180
0200
0400
0000
F870
6060
3040
3080
1900
1A00
1C00
0800
1800
1800
1800
3800
7C00
ENDCHAR
STARTCHAR Thorn
ENCODING 222
SWIDTH 579 0
DWIDTH 10 0
BBX 11 13 0 0
BITMAP
3F00
0C00
0C00
0FC0
1860
1860
1860
18C0
31C0
3F00
3000
3000
F800
ENDCHAR
STARTCHAR germandbls
ENCODING 223
SWIDTH 603 0
DWIDTH 11 0
BBX 10 17 1 -3
BITMAP
0F00
0980
1880
1980
1100
3600
3400
3600
3300
2180
60C0
68C0
6880
4F00
4000
C000
C000
ENDCHAR
STARTCHAR agrave
ENCODING 224
SWIDTH 608 0
DWIDTH 11 0
BBX 10 13 1 0
BITMAP
0600
0200
0100
0000
0FC0
10C0
2080
6180
4180
C380
C580
C900
73C0
ENDCHAR
STARTCHAR aacute
ENCODING 225
SWIDTH 608 0
DWIDTH 11 0
BBX 10 13 1 0
BITMAP
00C0
0100
0200
0000
0FC0
10C0
2080
6180
4180
C380
C580
C900
73C0
ENDCHAR
STARTCHAR acircumflex
ENCODING 226
SWIDTH 608 0
DWIDTH 11 0
BBX 10 13 1 0
BITMAP
0380
0680
0840
0000
0FC0
10C0
2080
6180
4180
C380
C580
C900
73C0
ENDCHAR
STARTCHAR atilde
ENCODING 227
SWIDTH 608 0
DWIDTH 11 0
BBX 10 12 1 0
BITMAP
0640
0980
0000
0FC0
10C0
2080
6180
4180
C380
C580
C900
73C0
ENDCHAR
STARTCHAR adieresis
ENCODING 228
SWIDTH 608 0
DWIDTH 11 0
BBX 10 11 1 0
BITMAP
06C0
0000
0FC0
10C0
2080
6180
4180
C380
C580
C900
73C0
ENDCHAR
STARTCHAR aring
ENCODING 229
SWIDTH 608 0
DWIDTH 11 0
BBX 10 13 1 0
BITMAP
0380
0280
0380
0000
0FC0
10C0
2080
6180
4180
C380
C580
C900
73C0
ENDCHAR
STARTCHAR ae
ENCODING 230
SWIDTH 881 0
DWIDTH 16 0
BBX 14 9 2 0
BITMAP
0FFC
10CC
208C
618C
41F0
C300
C584
C988
70F0
ENDCHAR
STARTCHAR ccedilla
ENCODING 231
SWIDTH 487 0
DWIDTH 9 0
BBX 8 12 2 -3
BITMAP
0F
31
61
40
C0
C0
C0
C2
7C
20
10
70
ENDCHAR
STARTCHAR egrave
ENCODING 232
SWIDTH 518 0
DWIDTH 9 0
BBX 8 13 2 0
BITMAP
0C
04
02
00
0E
33
63
42
FC
C0
C1
E6
7C
ENDCHAR
STARTCHAR eacute
ENCODING 233
SWIDTH 518 0
DWIDTH 9 0
BBX 9 13 2 0
BITMAP
0180
0200
0400
0000
0E00
3300
6300
4200
FC00
C000
C100
E600
7C00
ENDCHAR
STARTCHAR ecircumflex
ENCODING 234
SWIDTH 518 0
DWIDTH 9 0
BBX 9 13 2 0
BITMAP
0700
0D00
1080
0000
0E00
3300
6300
4200
FC00
C000
C100
E600
7C00
ENDCHAR
STARTCHAR edieresis
ENCODING 235
SWIDTH 518 0
DWIDTH 9 0
BBX 9 11 2 0
BITMAP
0D80
0000
0E00
3300
6300
4200
FC00
C000
C100
E600
7C00
ENDCHAR
STARTCHAR igrave
ENCODING 236
SWIDTH 289 0
DWIDTH 5 0
BBX 5 13 2 0
BITMAP
30
10
08
00
F0
30
20
60
60
60
40
C0
F0
ENDCHAR
STARTCHAR iacute
ENCODING 237
SWIDTH 289 0
DWIDTH 5 0
BBX 7 13 2 0
BITMAP
06
08
10
00
F0
30
20
60
60
60
40
C0
F0
ENDCHAR
STARTCHAR icircumflex
ENCODING 238
SWIDTH 289 0
DWIDTH 5 0
BBX 7 13 2 0
BITMAP
1C
34
42
00
F0
30
20
60
60
60
40
C0
F0
ENDCHAR
STARTCHAR idieresis
ENCODING 239
SWIDTH 289 0
DWIDTH 5 0
BBX 6 11 2 0
BITMAP
6C
00
F0
30
20
60
60
60
40
C0
F0
ENDCHAR
STARTCHAR eth
ENCODING 240
SWIDTH 562 0
DWIDTH 10 0
BBX 9 14 2 0
BITMAP
0180
3E00
0F00
0B00
1100
1F80
3180
6180
4180
C100
C100
C300
C600
7800
ENDCHAR
STARTCHAR ntilde
ENCODING 241
SWIDTH 631 0
DWIDTH 11 0
BBX 10 12 2 0
BITMAP
0640
0980
0000
F380
24C0
68C0
7080
6180
6180
4180
C180
C3C0
ENDCHAR
STARTCHAR ograve
ENCODING 242
SWIDTH 560 0
DWIDTH 10 0
BBX 9 13 2 0
BITMAP
0C00
0400
0200
0000
0F00
3380
6180
4180
C180
C300
C300
C600
7800
ENDCHAR
STARTCHAR oacute
ENCODING 243
SWIDTH 560 0
DWIDTH 10 0
BBX 9 13 2 0
BITMAP
0180
0200
0400
0000
0F00
3380
6180
4180
C180
C300
C300
C600
7800
ENDCHAR
STARTCHAR ocircumflex
ENCODING 244
SWIDTH 560 0
DWIDTH 10 0
BBX 9 13 2 0
BITMAP
0700
0D00
1080
0000
0F00
3380
6180
4180
C180
C300
C300
C600
7800
ENDCHAR
STARTCHAR otilde
ENCODING 245
SWIDTH 560 0
DWIDTH 10 0
BBX 9 12 2 0
BITMAP
0C80
1300
0000
0F00
3380
6180
4180
C180
C300
C300
C600
7800
ENDCHAR
STARTCHAR odieresis
ENCODING 246
SWIDTH 560 0
DWIDTH 10 0
BBX 9 11 2 0
BITMAP
0D80
0000
0F00
3380
6180
4180
C180
C300
C300
C600
7800
ENDCHAR
STARTCHAR divide
ENCODING 247
SWIDTH 608 0
DWIDTH 11 0
BBX 11 9 1 0
BITMAP
0600
0000
0000
0000
FFE0
0000
0000
0000
0C00
ENDCHAR
STARTCHAR oslash
ENCODING 248
SWIDTH 560 0
DWIDTH 10 0
BBX 10 9 1 0
BITMAP
0740
1980
31C0
62C0
6480
7980
6100
6300
FC00
ENDCHAR
STARTCHAR ugrave
ENCODING 249
SWIDTH 630 0
DWIDTH 11 0
BBX 10 13 2 0
BITMAP
0600
0200
0100
0000
F3C0
60C0
6080
6180
6180
4380
C580
C900
73C0
ENDCHAR
STARTCHAR uacute
ENCODING 250
SWIDTH 630 0
DWIDTH 11 0
BBX 10 13 2 0
BITMAP
00C0
0100
0200
0000
F3C0
60C0
6080
6180
6180
4380
C580
C900
73C0
ENDCHAR
STARTCHAR ucircumflex
ENCODING 251
SWIDTH 630 0
DWIDTH 11 0
BBX 10 13 2 0
BITMAP
0380
0680
0840
0000
F3C0
60C0
6080
6180
6180
4380
C580
C900
73C0
ENDCHAR
STARTCHAR udieresis
ENCODING 252
SWIDTH 630 0
DWIDTH 11 0
BBX 10 11 2 0
BITMAP
0D80
0000
F3C0
60C0
6080
6180
6180
4380
C580
C900
73C0
ENDCHAR
STARTCHAR yacute
ENCODING 253
SWIDTH 558 0
DWIDTH 10 0
BBX 11 16 0 -3
BITMAP
0060
0080
0100
0000
7060
1820
1860
0840
0C80
0D00
0E00
0C00
0800
1000
3000
E000
ENDCHAR
STARTCHAR thorn
ENCODING 254
SWIDTH 608 0
DWIDTH 11 0
BBX 10 16 1 -3
BITMAP
7800
1000
1000
3000
3380
34C0
38C0
30C0
7080
6180
6100
6200
7C00
C000
C000
C000
ENDCHAR
STARTCHAR ydieresis
ENCODING 255
SWIDTH 558 0
DWIDTH 10 0
BBX 11 14 0 -3
BITMAP
06C0
0000
7060
1820
1860
0840
0C80
0D00
0E00
0C00
0800
1000
3000
E000
ENDCHAR
STARTCHAR Amacron
ENCODING 256
SWIDTH 747 0
DWIDTH 13 0
BBX 13 15 0 0
BITMAP
07C0
0000
00C0
00C0
01C0
03C0
02C0
0460
0C60
0860
1FE0
1060
2020
4030
F0F8
ENDCHAR
STARTCHAR amacron
ENCODING 257
SWIDTH 608 0
DWIDTH 11 0
BBX 10 11 1 0
BITMAP
0F80
0000
0FC0
10C0
2080
6180
4180
C380
C580
C900
73C0
ENDCHAR
STARTCHAR Abreve
ENCODING 258
SWIDTH 747 0
DWIDTH 13 0
BBX 13 17 0 0
BITMAP
0420
06C0
0380
0000
00C0
00C0
01C0
03C0
02C0
0460
0C60
0860
1FE0
1060
2020
4030
F0F8
ENDCHAR
STARTCHAR abreve
ENCODING 259
SWIDTH 608 0
DWIDTH 11 0
BBX 10 13 1 0
BITMAP
0840
0D80
0700
0000
0FC0
10C0
2080
6180
4180
C380
C580
C900
73C0
ENDCHAR
STARTCHAR Aogonek
ENCODING 260
SWIDTH 747 0
DWIDTH 13 0
BBX 13 16 0 -3
BITMAP
00C0
00C0
01C0
03C0
02C0
0460
0C60
0860
1FE0
1060
2020
4030
F0F8
0300
0400
0700
ENDCHAR
STARTCHAR aogonek
ENCODING 261
SWIDTH 608 0
DWIDTH 11 0
BBX 10 12 1 -3
BITMAP
0FC0
10C0
2080
6180
4180
C380
C580
C900
73C0
0C00
1000
1C00
ENDCHAR
STARTCHAR Cacute
ENCODING 262
SWIDTH 714 0
DWIDTH 13 0
BBX 12 17 2 0
BITMAP
00C0
0100
0200
0000
07F0
1C30
3030
3000
6000
6000
C000
C000
C000
C000
E000
70C0
3F00
ENDCHAR
STARTCHAR cacute
ENCODING 263
SWIDTH 487 0
DWIDTH 9 0
BBX 8 13 2 0
BITMAP
03
04
08
00
0F
31
61
40
C0
C0
C0
C2
7C
ENDCHAR
STARTCHAR Ccircumflex
ENCODING 264
SWIDTH 714 0
DWIDTH 13 0
BBX 12 17 2 0
BITMAP
0380
0680
0840
0000
07F0
1C30
3030
3000
6000
6000
C000
C000
C000
C000
E000
70C0
3F00
ENDCHAR
STARTCHAR ccircumflex
ENCODING 265
SWIDTH 487 0
DWIDTH 9 0
BBX 8 13 2 0
BITMAP
0E
1A
21
00
0F
31
61
40
C0
C0
C0
C2
7C
ENDCHAR
STARTCHAR Cdotaccent
ENCODING 266
SWIDTH 714 0
DWIDTH 13 0
BBX 12 15 2 0
BITMAP
0300
0000
07F0
1C30
3030
3000
6000
6000
C000
C000
C000
C000
E000
70C0
3F00
ENDCHAR
STARTCHAR cdotaccent
ENCODING 267
SWIDTH 487 0
DWIDTH 9 0
BBX 8 11 2 0
BITMAP
0C
00
0F
31
61
40
C0
C0
C0
C2
7C
ENDCHAR
STARTCHAR Ccaron
ENCODING 268
SWIDTH 714 0
DWIDTH 13 0
BBX 12 17 2 0
BITMAP
0840
0580
0700
0000
07F0
1C30
3030
3000
6000
6000
C000
C000
C000
C000
E000
70C0
3F00
ENDCHAR
STARTCHAR ccaron
ENCODING 269
SWIDTH 487 0
DWIDTH 9 0
BBX 8 13 2 0
BITMAP
21
16
1C
00
0F
31
61
40
C0
C0
C0
C2
7C
ENDCHAR
STARTCHAR Dcaron
ENCODING 270
SWIDTH 770 0
DWIDTH 14 0
BBX 14 17 0 0
BITMAP
0420
02C0
0380
0000
3FF0
0C38
0C1C
080C
180C
180C
180C
180C
3018
3018
3030
30E0
FF80
ENDCHAR
STARTCHAR dcaron
ENCODING 271
SWIDTH 843 0
DWIDTH 15 0
BBX 15 13 1 0
BITMAP
01E6
0066
0046
00C4
0FCC
10C0
20C0
6080
4180
C380
C580
C900
73C0
ENDCHAR
STARTCHAR Dcroat
ENCODING 272
SWIDTH 770 0
DWIDTH 14 0
BBX 14 13 0 0
BITMAP
3FF0
0C38
0C1C
080C
180C
180C
7F0C
180C
1018
3018
3030
30E0
FF80
ENDCHAR
STARTCHAR dcroat
ENCODING 273
SWIDTH 608 0
DWIDTH 11 0
BBX 12 13 1 0
BITMAP
01E0
0060
0FF0
00C0
0FC0
10C0
20C0
6080
4180
C380
C580
C900
73C0
ENDCHAR
STARTCHAR Emacron
ENCODING 274
SWIDTH 569 0
DWIDTH 10 0
BBX 11 15 1 0
BITMAP
1F00
0000
3FE0
1820
1820
1800
1800
1880
1F80
3100
3000
3000
3080
3080
FF80
ENDCHAR
STARTCHAR emacron
ENCODING 275
SWIDTH 518 0
DWIDTH 9 0
BBX 8 11 2 0
BITMAP
3E
00
0E
33
63
42
FC
C0
C1
E6
7C
ENDCHAR
STARTCHAR Ebreve
ENCODING 276
SWIDTH 569 0
DWIDTH 10 0
BBX 11 17 1 0
BITMAP
1080
1B00
0E00
0000
3FE0
1820
1820
1800
1800
1880
1F80
3100
3000
3000
3080
3080
FF80
ENDCHAR
STARTCHAR ebreve
ENCODING 277
SWIDTH 518 0
DWIDTH 9 0
BBX 8 13 2 0
BITMAP
21
36
1C
00
0E
33
63
42
FC
C0
C1
E6
7C
ENDCHAR
STARTCHAR Edotaccent
ENCODING 278
SWIDTH 569 0
DWIDTH 10 0
BBX 11 15 1 0
BITMAP
0600
0000
3FE0
1820
1820
1800
1800
1880
1F80
3100
3000
3000
3080
3080
FF80
ENDCHAR
STARTCHAR edotaccent
ENCODING 279
SWIDTH 518 0
DWIDTH 9 0
BBX 8 11 2 0
BITMAP
0C
00
0E
33
63
42
FC
C0
C1
E6
7C
ENDCHAR
STARTCHAR Eogonek
ENCODING 280
SWIDTH 569 0
DWIDTH 10 0
BBX 11 16 1 -3
BITMAP
3FE0
1820
1820
1800
1800
1880
1F80
3100
3000
3000
3080
3080
FF80
0C00
1000
1C00
ENDCHAR
STARTCHAR eogonek
ENCODING 281
SWIDTH 518 0
DWIDTH 9 0
BBX 8 12 2 -3
BITMAP
0E
33
63
42
FC
C0
C1
E6
7C
18
20
38
ENDCHAR
STARTCHAR Ecaron
ENCODING 282
SWIDTH 569 0
DWIDTH 10 0
BBX 11 17 1 0
BITMAP
1080
0B00
0E00
0000
3FE0
1820
1820
1800
1800
1880
1F80
3100
3000
3000
3080
3080
FF80
ENDCHAR
STARTCHAR ecaron
ENCODING 283
SWIDTH 518 0
DWIDTH 9 0
BBX 8 13 2 0
BITMAP
21
16
1C
00
0E
33
63
42
FC
C0
C1
E6
7C
ENDCHAR
STARTCHAR Gcircumflex
ENCODING 284
SWIDTH 756 0
DWIDTH 14 0
BBX 12 17 2 0
BITMAP
0380
0680
0840
0000
07F0
1C30
3020
3000
6000
4000
C000
C1F0
C0C0
C0C0
E0C0
70C0
3F00
ENDCHAR
STARTCHAR gcircumflex
ENCODING 285
SWIDTH 602 0
DWIDTH 11 0
BBX 10 16 1 -3
BITMAP
0700
0D00
1080
0000
07C0
18C0
30C0
2080
6180
6380
6380
6500
7B00
0300
C200
7C00
ENDCHAR
STARTCHAR Gbreve
ENCODING 286
SWIDTH 756 0
DWIDTH 14 0
BBX 12 17 2 0
BITMAP
0840
0D80
0700
0000
07F0
1C30
3020
3000
6000
4000
C000
C1F0
C0C0
C0C0
E0C0
70C0
3F00
ENDCHAR
STARTCHAR gbreve
ENCODING 287
SWIDTH 602 0
DWIDTH 11 0
BBX 10 16 1 -3
BITMAP
1080
1B00
0E00
0000
07C0
18C0
30C0
2080
6180
6380
6380
6500
7B00
0300
C200
7C00
ENDCHAR
STARTCHAR Gdotaccent
ENCODING 288
SWIDTH 756 0
DWIDTH 14 0
BBX 12 15 2 0
BITMAP
0300
0000
07F0
1C30
3020
3000
6000
4000
C000
C1F0
C0C0
C0C0
E0C0
70C0
3F00
ENDCHAR
STARTCHAR gdotaccent
ENCODING 289
SWIDTH 602 0
DWIDTH 11 0
BBX 10 14 1 -3
BITMAP
0600
0000
07C0
18C0
30C0
2080
6180
6380
6380
6500
7B00
0300
C200
7C00
ENDCHAR
STARTCHAR Gcommaaccent
ENCODING 290
SWIDTH 756 0
DWIDTH 14 0
BBX 12 19 2 -6
BITMAP
07F0
1C30
3020
3000
6000
4000
C000
C1F0
C0C0
C0C0
E0C0
70C0
3F00
0000
0C00
0C00
0C00
0800
1800
ENDCHAR
STARTCHAR gcommaaccent
ENCODING 291
SWIDTH 602 0
DWIDTH 11 0
BBX 10 18 1 -3
BITMAP
0300
0200
0600
0700
0600
0000
07C0
18C0
30C0
2080
6180
6380
6380
6500
7B00
0300
C200
7C00
ENDCHAR
STARTCHAR Hcircumflex
ENCODING 292
SWIDTH 776 0
DWIDTH 14 0
BBX 16 17 0 0
BITMAP
00E0
01A0
0210
0000
1F1F
0C0C
0C0C
080C
1808
1818
1FF8
1818
1018
3010
3030
3030
F8F8
ENDCHAR
STARTCHAR hcircumflex
ENCODING 293
SWIDTH 631 0
DWIDTH 11 0
BBX 10 17 2 0
BITMAP
1C00
3400
4200
0000
7800
1000
3000
3000
3380
24C0
68C0
7080
6180
6180
4180
C180
C3C0
ENDCHAR
STARTCHAR Hbar
ENCODING 294
SWIDTH 776 0
DWIDTH 14 0
BBX 16 13 0 0
BITMAP
1F1F
0C0C
0C0C
FFFF
1808
1818
1FF8
1818
1018
3010
3030
3030
F8F8
ENDCHAR
STARTCHAR hbar
ENCODING 295
SWIDTH 631 0
DWIDTH 11 0
BBX 11 13 1 0
BITMAP
3C00
0800
FF00
1800
19C0
1260
3460
3840
30C0
30C0
20C0
60C0
61E0
ENDCHAR
STARTCHAR Itilde
ENCODING 296
SWIDTH 325 0
DWIDTH 6 0
BBX 8 16 0 0
BITMAP
19
26
00
1F
0C
0C
0C
08
18
18
18
10
30
30
30
F8
ENDCHAR
STARTCHAR itilde
ENCODING 297
SWIDTH 289 0
DWIDTH 5 0
BBX 6 12 1 0
BITMAP
64
98
00
78
18
10
30
30
30
20
60
78
ENDCHAR
STARTCHAR Imacron
ENCODING 298
SWIDTH 325 0
DWIDTH 6 0
BBX 8 15 0 0
BITMAP
3E
00
1F
0C
0C
0C
08
18
18
18
10
30
30
30
F8
ENDCHAR
STARTCHAR imacron
ENCODING 299
SWIDTH 289 0
DWIDTH 5 0
BBX 5 11 2 0
BITMAP
F8
00
F0
30
20
60
60
60
40
C0
F0
ENDCHAR
STARTCHAR Ibreve
ENCODING 300
SWIDTH 325 0
DWIDTH 6 0
BBX 8 17 0 0
BITMAP
21
36
1C
00
1F
0C
0C
0C
08
18
18
18
10
30
30
30
F8
ENDCHAR
STARTCHAR ibreve
ENCODING 301
SWIDTH 289 0
DWIDTH 5 0
BBX 6 13 2 0
BITMAP
84
D8
70
00
F0
30
20
60
60
60
40
C0
F0
ENDCHAR
STARTCHAR Iogonek
ENCODING 302
SWIDTH 325 0
DWIDTH 6 0
BBX 8 16 0 -3
BITMAP
1F
0C
0C
0C
08
18
18
18
10
30
30
30
F8
30
40
70
ENDCHAR
STARTCHAR iogonek
ENCODING 303
SWIDTH 289 0
DWIDTH 5 0
BBX 4 16 2 -3
BITMAP
30
00
00
00
E0
60
60
60
40
40
40
C0
E0
60
80
E0
ENDCHAR
STARTCHAR Idotaccent
ENCODING 304
SWIDTH 325 0
DWIDTH 6 0
BBX 8 15 0 0
BITMAP
0C
00
1F
0C
0C
0C
08
18
18
18
10
30
30
30
F8
ENDCHAR
STARTCHAR dotlessi
ENCODING 305
SWIDTH 289 0
DWIDTH 5 0
BBX 4 9 2 0
BITMAP
F0
30
20
60
60
60
40
C0
F0
ENDCHAR
STARTCHAR IJ
ENCODING 306
SWIDTH 731 0
DWIDTH 14 0
BBX 16 16 0 -3
BITMAP
1F1F
0C0E
0C0C
0C0C
080C
1808
1818
1818
1018
3018
3010
3030
F830
0330
0260
03C0
ENDCHAR
STARTCHAR ij
ENCODING 307
SWIDTH 618 0
DWIDTH 11 0
BBX 11 16 2 -3
BITMAP
3060
0000
0000
0000
E1C0
60C0
60C0
60C0
4080
4180
4180
C180
E100
2300
2200
3C00
ENDCHAR
STARTCHAR Jcircumflex
ENCODING 308
SWIDTH 422 0
DWIDTH 8 0
BBX 10 20 0 -3
BITMAP
0380
0680
0840
0000
07C0
0380
0300
0300
0300
0200
0600
0600
0600
0600
0400
0C00
0C00
CC00
9800
F000
ENDCHAR
STARTCHAR jcircumflex
ENCODING 309
SWIDTH 343 0
DWIDTH 6 0
BBX 9 16 -1 -3
BITMAP
0700
0D00
1080
0000
0700
0300
0300
0300
0200
0600
0600
0600
0400
8C00
8800
F000
ENDCHAR
STARTCHAR Kcommaaccent
ENCODING 310
SWIDTH 698 0
DWIDTH 13 0
BBX 14 19 0 -6
BITMAP
1F3C
0C18
0C20
0CC0
1980
1A00
1E00
1B00
1380
31C0
30C0
3060
F9F0
0000
0300
0300
0300
0200
0600
ENDCHAR
STARTCHAR kcommaaccent
ENCODING 311
SWIDTH 560 0
DWIDTH 10 0
BBX 9 19 2 -6
BITMAP
7000
3000
3000
3000
2180
2300
6600
7800
7800
4C00
4E00
C600
C380
0000
0C00
0C00
0C00
0800
1800
ENDCHAR
STARTCHAR kgreenlandic
ENCODING 312
SWIDTH 560 0
DWIDTH 10 0
BBX 9 9 2 0
BITMAP
2180
2300
6600
7800
7800
4C00
4E00
C600
C380
ENDCHAR
STARTCHAR Lacute
ENCODING 313
SWIDTH 572 0
DWIDTH 10 0
BBX 10 17 0 0
BITMAP
0300
0400
0800
0000
3F00
0C00
0C00
0800
1800
1800
1800
1800
3000
3000
3040
30C0
FFC0
ENDCHAR
STARTCHAR lacute
ENCODING 314
SWIDTH 289 0
DWIDTH 5 0
BBX 6 17 1 0
BITMAP
0C
10
20
00
78
18
10
30
30
30
20
60
60
60
40
C0
F0
ENDCHAR
STARTCHAR Lcommaaccent
ENCODING 315
SWIDTH 572 0
DWIDTH 10 0
BBX 10 19 0 -6
BITMAP
3F00
0C00
0C00
0800
1800
1800
1800
1800
3000
3000
3040
30C0
FFC0
0000
0C00
0C00
0C00
0800
1800
ENDCHAR
STARTCHAR lcommaaccent
ENCODING 316
SWIDTH 289 0
DWIDTH 5 0
BBX 5 19 1 -6
BITMAP
78
18
10
30
30
30
20
60
60
60
40
C0
F0
00
60
60
60
40
C0
ENDCHAR
STARTCHAR Lcaron
ENCODING 317
SWIDTH 808 0
DWIDTH 15 0
BBX 16 13 0 0
BITMAP
3F03
0C03
0C03
0802
1806
1800
1800
1800
3000
3000
3040
30C0
FFC0
ENDCHAR
STARTCHAR lcaron
ENCODING 318
SWIDTH 540 0
DWIDTH 10 0
BBX 10 13 1 0
BITMAP
78C0
18C0
10C0
3080
3180
3000
2000
6000
6000
6000
4000
C000
F000
ENDCHAR
STARTCHAR Ldot
ENCODING 319
SWIDTH 1151 0
DWIDTH 21 0
BBX 18 13 0 0
BITMAP
3F0000
0C0000
0C0000
080000
180000
180000
180000
1800C0
300000
300000
304000
30C000
FFC000
ENDCHAR
STARTCHAR ldot
ENCODING 320
SWIDTH 883 0
DWIDTH 16 0
BBX 12 13 1 0
BITMAP
7800
1800
1000
3000
3000
3000
2000
6030
6000
6000
4000
C000
F000
ENDCHAR
STARTCHAR Lslash
ENCODING 321
SWIDTH 572 0
DWIDTH 10 0
BBX 10 13 0 0
BITMAP
1F00
0C00
0C00
0C00
1A00
1E00
1800
7800
1000
3000
3040
30C0
FFC0
ENDCHAR
STARTCHAR lslash
ENCODING 322
SWIDTH 289 0
DWIDTH 5 0
BBX 6 13 1 0
BITMAP
38
18
18
18
10
3C
F0
30
20
60
60
60
70
ENDCHAR
STARTCHAR Nacute
ENCODING 323
SWIDTH 762 0
DWIDTH 14 0
BBX 16 17 0 0
BITMAP
0060
0080
0100
0000
3C1F
0C04
0E04
1608
1308
1308
1188
10C8
20D0
2070
2070
2030
F020
ENDCHAR
STARTCHAR nacute
ENCODING 324
SWIDTH 631 0
DWIDTH 11 0
BBX 10 13 2 0
BITMAP
0300
0400
0800
0000
F380
24C0
68C0
7080
6180
6180
4180
C180
C3C0
ENDCHAR
STARTCHAR Ncommaaccent
ENCODING 325
SWIDTH 762 0
DWIDTH 14 0
BBX 16 19 0 -6
BITMAP
3C1F
0C04
0E04
1608
1308
1308
1188
10C8
20D0
2070
2070
2030
F020
0000
0300
0300
0300
0200
0600
ENDCHAR
STARTCHAR ncommaaccent
ENCODING 326
SWIDTH 631 0
DWIDTH 11 0
BBX 10 15 2 -6
BITMAP
F380
24C0
68C0
7080
6180
6180
4180
C180
C3C0
0000
0C00
0C00
0C00
0800
1800
ENDCHAR
STARTCHAR Ncaron
ENCODING 327
SWIDTH 762 0
DWIDTH 14 0
BBX 16 17 0 0
BITMAP
0210
0160
01C0
0000
3C1F
0C04
0E04
1608
1308
1308
1188
10C8
20D0
2070
2070
2030
F020
ENDCHAR
STARTCHAR ncaron
ENCODING 328
SWIDTH 631 0
DWIDTH 11 0
BBX 10 13 2 0
BITMAP
2100
1600
1C00
0000
F380
24C0
68C0
7080
6180
6180
4180
C180
C3C0
ENDCHAR
STARTCHAR napostrophe
ENCODING 329
SWIDTH 883 0
DWIDTH 16 0
BBX 14 13 3 0
BITMAP
6000
6000
6000
4000
CF38
024C
068C
0708
0618
0618
0418
0C18
0C3C
ENDCHAR
STARTCHAR Eng
ENCODING 330
SWIDTH 762 0
DWIDTH 14 0
BBX 16 16 0 -3
BITMAP
3C1F
0C04
0E04
1608
1308
1308
1188
10C8
20D0
2070
2070
2030
F020
0460
0440
0780
ENDCHAR
STARTCHAR eng
ENCODING 331
SWIDTH 631 0
DWIDTH 11 0
BBX 10 12 2 -3
BITMAP
F380
24C0
68C0
7080
6180
6180
4180
C180
C100
2300
2200
3C00
ENDCHAR
STARTCHAR Omacron
ENCODING 332
SWIDTH 783 0
DWIDTH 14 0
BBX 13 15 2 0
BITMAP
07C0
0000
07C0
0C70
3030
2018
6018
4018
C018
C030
C030
C060
C0C0
6180
3E00
ENDCHAR
STARTCHAR omacron
ENCODING 333
SWIDTH 560 0
DWIDTH 10 0
BBX 9 11 2 0
BITMAP
1F00
0000
0F00
3380
6180
4180
C180
C300
C300
C600
7800
ENDCHAR
STARTCHAR Obreve
ENCODING 334
SWIDTH 783 0
DWIDTH 14 0
BBX 13 17 2 0
BITMAP
0420
06C0
0380
0000
07C0
0C70
3030
2018
6018
4018
C018
C030
C030
C060
C0C0
6180
3E00
ENDCHAR
STARTCHAR obreve
ENCODING 335
SWIDTH 560 0
DWIDTH 10 0
BBX 9 13 2 0
BITMAP
1080
1B00
0E00
0000
0F00
3380
6180
4180
C180
C300
C300
C600
7800
ENDCHAR
STARTCHAR Ohungarumlaut
ENCODING 336
SWIDTH 783 0
DWIDTH 14 0
BBX 13 17 2 0
BITMAP
01E0
0280
0500
0000
07C0
0C70
3030
2018
6018
4018
C018
C030
C030
C060
C0C0
6180
3E00
ENDCHAR
STARTCHAR ohungarumlaut
ENCODING 337
SWIDTH 560 0
DWIDTH 10 0
BBX 9 13 2 0
BITMAP
0780
0A00
1400
0000
0F00
3380
6180
4180
C180
C300
C300
C600
7800
ENDCHAR
STARTCHAR OE
ENCODING 338
SWIDTH 1005 0
DWIDTH 18 0
BBX 18 13 2 0
BITMAP
03DFC0
0C7040
103040
303000
603000
402100
C07F00
C06100
C06000
C06000
C0C100
61C100
1EFF00
ENDCHAR
STARTCHAR oe
ENCODING 339
SWIDTH 892 0
DWIDTH 16 0
BBX 14 9 2 0
BITMAP
0F38
334C
618C
4188
C1F0
C300
C304
C588
79F0
ENDCHAR
STARTCHAR Racute
ENCODING 340
SWIDTH 686 0
DWIDTH 12 0
BBX 12 17 0 0
BITMAP
00C0
0100
0200
0000
1FE0
0C60
0C30
0820
1860
18C0
1F00
1B00
1180
3180
30C0
30E0
F870
ENDCHAR
STARTCHAR racute
ENCODING 341
SWIDTH 470 0
DWIDTH 8 0
BBX 8 13 2 0
BITMAP
06
08
10
00
F3
2E
78
70
60
40
40
C0
C0
ENDCHAR
STARTCHAR Rcommaaccent
ENCODING 342
SWIDTH 686 0
DWIDTH 12 0
BBX 12 19 0 -6
BITMAP
1FE0
0C60
0C30
0820
1860
18C0
1F00
1B00
1180
3180
30C0
30E0
F870
0000
0600
0600
0600
0400
0C00
ENDCHAR
STARTCHAR rcommaaccent
ENCODING 343
SWIDTH 470 0
DWIDTH 8 0
BBX 8 15 2 -6
BITMAP
F3
2E
78
70
60
40
40
C0
C0
00
60
60
60
40
C0
ENDCHAR
STARTCHAR Rcaron
ENCODING 344
SWIDTH 686 0
DWIDTH 12 0
BBX 12 17 0 0
BITMAP
0840
0580
0700
0000
1FE0
0C60
0C30
0820
1860
18C0
1F00
1B00
1180
3180
30C0
30E0
F870
ENDCHAR
STARTCHAR rcaron
ENCODING 345
SWIDTH 470 0
DWIDTH 8 0
BBX 8 13 2 0
BITMAP
42
2C
38
00
F3
2E
78
70
60
40
40
C0
C0
ENDCHAR
STARTCHAR Sacute
ENCODING 346
SWIDTH 549 0
DWIDTH 10 0
BBX 10 17 1 0
BITMAP
0180
0200
0400
0000
0F80
18C0
3040
3040
3800
1C00
0E00
0300
0180
8180
8180
C300
7C00
ENDCHAR
STARTCHAR sacute
ENCODING 347
SWIDTH 440 0
DWIDTH 8 0
BBX 8 13 1 0
BITMAP
03
04
08
00
1F
31
31
38
1C
06
82
C6
7C
ENDCHAR
STARTCHAR Scircumflex
ENCODING 348
SWIDTH 549 0
DWIDTH 10 0
BBX 10 17 1 0
BITMAP
0700
0D00
1080
0000
0F80
18C0
3040
3040
3800
1C00
0E00
0300
0180
8180
8180
C300
7C00
ENDCHAR
STARTCHAR scircumflex
ENCODING 349
SWIDTH 440 0
DWIDTH 8 0
BBX 8 13 1 0
BITMAP
0E
1A
21
00
1F
31
31
38
1C
06
82
C6
7C
ENDCHAR
STARTCHAR Scedilla
ENCODING 350
SWIDTH 549 0
DWIDTH 10 0
BBX 10 16 1 -3
BITMAP
0F80
18C0
3040
3040
3800
1C00
0E00
0300
0180
8180
8180
C300
7C00
0C00
0400
1C00
ENDCHAR
STARTCHAR scedilla
ENCODING 351
SWIDTH 440 0
DWIDTH 8 0
BBX 8 12 1 -3
BITMAP
1F
31
31
38
1C
06
82
C6
7C
18
08
38
ENDCHAR
STARTCHAR Scaron
ENCODING 352
SWIDTH 549 0
DWIDTH 10 0
BBX 10 17 1 0
BITMAP
0840
0580
0700
0000
0F80
18C0
3040
3040
3800
1C00
0E00
0300
0180
8180
8180
C300
7C00
ENDCHAR
STARTCHAR scaron
ENCODING 353
SWIDTH 440 0
DWIDTH 8 0
BBX 10 13 1 0
BITMAP
0840
0580
0700
0000
1F00
3100
3100
3800
1C00
0600
8200
C600
7C00
ENDCHAR
STARTCHAR Tcommaaccent
ENCODING 354
SWIDTH 663 0
DWIDTH 12 0
BBX 12 16 2 -3
BITMAP
FFF0
C610
8610
0400
0C00
0C00
0C00
0C00
0800
1800
1800
1800
7E00
0C00
0400
1C00
ENDCHAR
STARTCHAR tcommaaccent
ENCODING 355
SWIDTH 355 0
DWIDTH 6 0
BBX 6 15 2 -3
BITMAP
30
30
30
FC
60
60
60
40
C0
C0
C0
70
60
20
E0
ENDCHAR
STARTCHAR Tcaron
ENCODING 356
SWIDTH 663 0
DWIDTH 12 0
BBX 12 17 2 0
BITMAP
1080
0B00
0E00
0000
FFF0
C610
8610
0400
0C00
0C00
0C00
0C00
0800
1800
1800
1800
7E00
ENDCHAR
STARTCHAR tcaron
ENCODING 357
SWIDTH 602 0
DWIDTH 11 0
BBX 10 13 2 0
BITMAP
00C0
30C0
30C0
3080
FD80
6000
6000
6000
4000
C000
C000
C000
7000
ENDCHAR
STARTCHAR Tbar
ENCODING 358
SWIDTH 663 0
DWIDTH 12 0
BBX 12 13 2 0
BITMAP
FFF0
C610
8610
0400
0C00
0C00
3FC0
0C00
0800
1800
1800
1800
7E00
ENDCHAR
STARTCHAR tbar
ENCODING 359
SWIDTH 355 0
DWIDTH 6 0
BBX 8 12 1 0
BITMAP
18
18
18
7E
30
30
30
FF
60
60
60
38
ENDCHAR
STARTCHAR Utilde
ENCODING 360
SWIDTH 727 0
DWIDTH 13 0
BBX 13 16 3 0
BITMAP
0C80
1300
0000
F878
7020
6020
6020
6040
6040
4040
C040
C040
C080
C080
6100
3E00
ENDCHAR
STARTCHAR utilde
ENCODING 361
SWIDTH 630 0
DWIDTH 11 0
BBX 10 12 2 0
BITMAP
1900
2600
0000
F3C0
60C0
6080
6180
6180
4380
C580
C900
73C0
ENDCHAR
STARTCHAR Umacron
ENCODING 362
SWIDTH 727 0
DWIDTH 13 0
BBX 13 15 3 0
BITMAP
1F00
0000
F878
7020
6020
6020
6040
6040
4040
C040
C040
C080
C080
6100
3E00
ENDCHAR
STARTCHAR umacron
ENCODING 363
SWIDTH 630 0
DWIDTH 11 0
BBX 10 11 2 0
BITMAP
3E00
0000
F3C0
60C0
6080
6180
6180
4380
C580
C900
73C0
ENDCHAR
STARTCHAR Ubreve
ENCODING 364
SWIDTH 727 0
DWIDTH 13 0
BBX 13 17 3 0
BITMAP
1080
1B00
0E00
0000
F878
7020
6020
6020
6040
6040
4040
C040
C040
C080
C080
6100
3E00
ENDCHAR
STARTCHAR ubreve
ENCODING 365
SWIDTH 630 0
DWIDTH 11 0
BBX 10 13 2 0
BITMAP
2100
3600
1C00
0000
F3C0
60C0
6080
6180
6180
4380
C580
C900
73C0
ENDCHAR
STARTCHAR Uring
ENCODING 366
SWIDTH 727 0
DWIDTH 13 0
BBX 13 17 3 0
BITMAP
0E00
0A00
0E00
0000
F878
7020
6020
6020
6040
6040
4040
C040
C040
C080
C080
6100
3E00
ENDCHAR
STARTCHAR uring
ENCODING 367
SWIDTH 630 0
DWIDTH 11 0
BBX 10 13 2 0
BITMAP
1C00
1400
1C00
0000
F3C0
60C0
6080
6180
6180
4380
C580
C900
73C0
ENDCHAR
STARTCHAR Uhungarumlaut
ENCODING 368
SWIDTH 727 0
DWIDTH 13 0
BBX 13 17 3 0
BITMAP
03C0
0500
0A00
0000
F878
7020
6020
6020
6040
6040
4040
C040
C040
C080
C080
6100
3E00
ENDCHAR
STARTCHAR uhungarumlaut
ENCODING 369
SWIDTH 630 0
DWIDTH 11 0
BBX 10 13 2 0
BITMAP
0780
0A00
1400
0000
F3C0
60C0
6080
6180
6180
4380
C580
C900
73C0
ENDCHAR
STARTCHAR Uogonek
ENCODING 370
SWIDTH 727 0
DWIDTH 13 0
BBX 13 16 3 -3
BITMAP
F878
7020
6020
6020
6040
6040
4040
C040
C040
C080
C080
6100
3E00
0C00
1000
1C00
ENDCHAR
STARTCHAR uogonek
ENCODING 371
SWIDTH 630 0
DWIDTH 11 0
BBX 10 12 2 -3
BITMAP
F3C0
60C0
6080
6180
6180
4380
C580
C900
73C0
0C00
1000
1C00
ENDCHAR
STARTCHAR Wcircumflex
ENCODING 372
SWIDTH 878 0
DWIDTH 16 0
BBX 17 17 2 0
BITMAP
01C000
034000
042000
000000
F88780
608300
61C200
61C400
62C400
62C800
64C800
24D000
28D000
28E000
30E000
30C000
204000
ENDCHAR
STARTCHAR wcircumflex
ENCODING 373
SWIDTH 805 0
DWIDTH 14 0
BBX 14 13 1 0
BITMAP
0380
0680
0840
0000
E10C
6184
338C
3388
3690
14F0
18E0
18C0
1080
ENDCHAR
STARTCHAR Ycircumflex
ENCODING 374
SWIDTH 663 0
DWIDTH 12 0
BBX 12 17 2 0
BITMAP
0700
0D00
1080
0000
F870
6060
3040
3080
1900
1A00
1C00
0800
1800
1800
1800
3800
7C00
ENDCHAR
STARTCHAR ycircumflex
ENCODING 375
SWIDTH 558 0
DWIDTH 10 0
BBX 11 16 0 -3
BITMAP
0700
0D00
1080
0000
7060
1820
1860
0840
0C80
0D00
0E00
0C00
0800
1000
3000
E000
ENDCHAR
STARTCHAR Ydieresis
ENCODING 376
SWIDTH 663 0
DWIDTH 12 0
BBX 12 15 2 0
BITMAP
0D80
0000
F870
6060
3040
3080
1900
1A00
1C00
0800
1800
1800
1800
3800
7C00
ENDCHAR
STARTCHAR Zacute
ENCODING 377
SWIDTH 633 0
DWIDTH 11 0
BBX 12 17 1 0
BITMAP
00C0
0100
0200
0000
1FF0
1060
30C0
01C0
0180
0300
0600
0C00
1800
3800
3040
6040
FFC0
ENDCHAR
STARTCHAR zacute
ENCODING 378
SWIDTH 536 0
DWIDTH 10 0
BBX 9 13 1 0
BITMAP
0300
0400
0800
0000
3F80
2300
2600
0C00
1800
1800
3100
6100
FF00
ENDCHAR
STARTCHAR Zdotaccent
ENCODING 379
SWIDTH 633 0
DWIDTH 11 0
BBX 12 15 1 0
BITMAP
0300
0000
1FF0
1060
30C0
01C0
0180
0300
0600
0C00
1800
3800
3040
6040
FFC0
ENDCHAR
STARTCHAR zdotaccent
ENCODING 380
SWIDTH 536 0
DWIDTH 10 0
BBX 9 11 1 0
BITMAP
0C00
0000
3F80
2300
2600
0C00
1800
1800
3100
6100
FF00
ENDCHAR
STARTCHAR Zcaron
ENCODING 381
SWIDTH 633 0
DWIDTH 11 0
BBX 12 17 1 0
BITMAP
0420
02C0
0380
0000
1FF0
1060
30C0
01C0
0180
0300
0600
0C00
1800
3800
3040
6040
FFC0
ENDCHAR
STARTCHAR zcaron
ENCODING 382
SWIDTH 536 0
DWIDTH 10 0
BBX 10 13 1 0
BITMAP
0840
0580
0700
0000
3F80
2300
2600
0C00
1800
1800
3100
6100
FF00
ENDCHAR
STARTCHAR uni0186
ENCODING 390
SWIDTH 714 0
DWIDTH 13 0
BBX 12 13 2 0
BITMAP
0FC0
30E0
0070
0030
0030
0030
0030
0060
0060
00C0
C0C0
C380
FE00
ENDCHAR
STARTCHAR uni0189
ENCODING 393
SWIDTH 770 0
DWIDTH 14 0
BBX 14 13 0 0
BITMAP
3FF0
0C38
0C1C
080C
180C
180C
7F0C
180C
1018
3018
3030
30E0
FF80
ENDCHAR
STARTCHAR uni018E
ENCODING 398
SWIDTH 569 0
DWIDTH 10 0
BBX 11 13 1 0
BITMAP
3FE0
2180
2180
0180
0180
1180
3F00
2300
0300
0300
8300
8300
FF80
ENDCHAR
STARTCHAR florin
ENCODING 402
SWIDTH 608 0
DWIDTH 11 0
BBX 8 16 4 -3
BITMAP
07
19
11
30
30
30
F8
20
60
60
60
60
40
C0
C0
C0
ENDCHAR
STARTCHAR uni0197
ENCODING 407
SWIDTH 325 0
DWIDTH 6 0
BBX 8 13 0 0
BITMAP
1F
0C
0C
0C
08
18
FF
18
10
30
30
30
F8
ENDCHAR
STARTCHAR uni019A
ENCODING 410
SWIDTH 289 0
DWIDTH 5 0
BBX 8 13 0 0
BITMAP
3C
0C
08
18
18
18
FF
30
30
30
20
60
78
ENDCHAR
STARTCHAR uni019D
ENCODING 413
SWIDTH 762 0
DWIDTH 14 0
BBX 19 16 -3 -3
BITMAP
0783E0
018080
01C080
02C100
026100
026100
023100
021900
041A00
060E00
060E00
060600
040400
8C0000
880000
F00000
ENDCHAR
STARTCHAR uni019F
ENCODING 415
SWIDTH 783 0
DWIDTH 14 0
BBX 13 13 2 0
BITMAP
07C0
0C70
3030
2018
6018
4018
FFF8
C030
C030
C060
C0C0
6180
3E00
ENDCHAR
STARTCHAR Ohorn
ENCODING 416
SWIDTH 783 0
DWIDTH 14 0
BBX 15 13 2 0
BITMAP
07C6
0C76
3036
201C
601C
4018
C018
C030
C030
C060
C0C0
6180
3E00
ENDCHAR
STARTCHAR ohorn
ENCODING 417
SWIDTH 560 0
DWIDTH 10 0
BBX 11 9 2 0
BITMAP
0F60
33E0
61E0
41C0
C1C0
C300
C300
C600
7800
ENDCHAR
STARTCHAR Uhorn
ENCODING 431
SWIDTH 727 0
DWIDTH 13 0
BBX 15 13 3 0
BITMAP
F87E
7026
6026
6024
604C
6040
4040
C040
C040
C080
C080
6100
3E00
ENDCHAR
STARTCHAR uhorn
ENCODING 432
SWIDTH 630 0
DWIDTH 11 0
BBX 12 9 2 0
BITMAP
F3F0
60F0
60B0
61A0
61E0
4380
C580
C900
73C0
ENDCHAR
STARTCHAR uni01B5
ENCODING 437
SWIDTH 633 0
DWIDTH 11 0
BBX 12 13 1 0
BITMAP
1FF0
1060
30C0
01C0
0180
0300
3FC0
0C00
1800
3800
3040
6040
FFC0
ENDCHAR
STARTCHAR uni01B6
ENCODING 438
SWIDTH 536 0
DWIDTH 10 0
BBX 9 9 1 0
BITMAP
3F80
2300
2600
0C00
7F80
1800
3100
6100
FF00
ENDCHAR
STARTCHAR uni01BB
ENCODING 443
SWIDTH 608 0
DWIDTH 11 0
BBX 10 13 2 0
BITMAP
0F80
11C0
20C0
00C0
00C0
0180
FFC0
0400
1800
2000
6000
4000
FF00
ENDCHAR
STARTCHAR uni01BC
ENCODING 444
SWIDTH 608 0
DWIDTH 11 0
BBX 10 13 2 0
BITMAP
1FC0
2000
2000
2000
3C00
0600
0300
0300
0300
0300
8300
8600
F800
ENDCHAR
STARTCHAR uni01C0
ENCODING 448
SWIDTH 241 0
DWIDTH 4 0
BBX 4 16 1 -3
BITMAP
10
10
30
20
20
20
20
60
60
40
40
40
40
C0
80
80
ENDCHAR
STARTCHAR uni01C2
ENCODING 450
SWIDTH 608 0
DWIDTH 11 0
BBX 11 16 1 -3
BITMAP
0100
0100
0300
0200
0200
0200
7FE0
0600
0600
FFC0
0400
0400
0400
0C00
0800
0800
ENDCHAR
STARTCHAR uni01C3
ENCODING 451
SWIDTH 265 0
DWIDTH 5 0
BBX 4 13 2 0
BITMAP
30
30
30
20
20
20
40
40
40
40
00
00
C0
ENDCHAR
STARTCHAR uni01CD
ENCODING 461
SWIDTH 747 0
DWIDTH 13 0
BBX 13 17 0 0
BITMAP
0420
02C0
0380
0000
00C0
00C0
01C0
03C0
02C0
0460
0C60
0860
1FE0
1060
2020
4030
F0F8
ENDCHAR
STARTCHAR uni01CE
ENCODING 462
SWIDTH 608 0
DWIDTH 11 0
BBX 10 13 1 0
BITMAP
0840
0580
0700
0000
0FC0
10C0
2080
6180
4180
C380
C580
C900
73C0
ENDCHAR
STARTCHAR uni01CF
ENCODING 463
SWIDTH 325 0
DWIDTH 6 0
BBX 8 17 0 0
BITMAP
21
16
1C
00
1F
0C
0C
0C
08
18
18
18
10
30
30
30
F8
ENDCHAR
STARTCHAR uni01D0
ENCODING 464
SWIDTH 289 0
DWIDTH 5 0
BBX 6 13 2 0
BITMAP
84
58
70
00
F0
30
20
60
60
60
40
C0
F0
ENDCHAR
STARTCHAR uni01D1
ENCODING 465
SWIDTH 783 0
DWIDTH 14 0
BBX 13 17 2 0
BITMAP
0420
02C0
0380
0000
07C0
0C70
3030
2018
6018
4018
C018
C030
C030
C060
C0C0
6180
3E00
ENDCHAR
STARTCHAR uni01D2
ENCODING 466
SWIDTH 560 0
DWIDTH 10 0
BBX 9 13 2 0
BITMAP
1080
0B00
0E00
0000
0F00
3380
6180
4180
C180
C300
C300
C600
7800
ENDCHAR
STARTCHAR uni01D3
ENCODING 467
SWIDTH 727 0
DWIDTH 13 0
BBX 13 17 3 0
BITMAP
1080
0B00
0E00
0000
F878
7020
6020
6020
6040
6040
4040
C040
C040
C080
C080
6100
3E00
ENDCHAR
STARTCHAR uni01D4
ENCODING 468
SWIDTH 630 0
DWIDTH 11 0
BBX 10 13 2 0
BITMAP
2100
1600
1C00
0000
F3C0
60C0
6080
6180
6180
4380
C580
C900
73C0
ENDCHAR
STARTCHAR uni01D5
ENCODING 469
SWIDTH 727 0
DWIDTH 13 0
BBX 13 17 3 0
BITMAP
0F80
0000
06C0
0000
F878
7020
6020
6020
6040
6040
4040
C040
C040
C080
C080
6100
3E00
ENDCHAR
STARTCHAR uni01D6
ENCODING 470
SWIDTH 630 0
DWIDTH 11 0
BBX 10 13 2 0
BITMAP
1F00
0000
0D80
0000
F3C0
60C0
6080
6180
6180
4380
C580
C900
73C0
ENDCHAR
STARTCHAR uni01D7
ENCODING 471
SWIDTH 727 0
DWIDTH 13 0
BBX 13 19 3 0
BITMAP
0180
0200
0400
0000
06C0
0000
F878
7020
6020
6020
6040
6040
4040
C040
C040
C080
C080
6100
3E00
ENDCHAR
STARTCHAR uni01D8
ENCODING 472
SWIDTH 630 0
DWIDTH 11 0
BBX 10 15 2 0
BITMAP
0300
0400
0800
0000
0D80
0000
F3C0
60C0
6080
6180
6180
4380
C580
C900
73C0
ENDCHAR
STARTCHAR uni01D9
ENCODING 473
SWIDTH 727 0
DWIDTH 13 0
BBX 13 19 3 0
BITMAP
0840
0580
0700
0000
06C0
0000
F878
7020
6020
6020
6040
6040
4040
C040
C040
C080
C080
6100
3E00
ENDCHAR
STARTCHAR uni01DA
ENCODING 474
SWIDTH 630 0
DWIDTH 11 0
BBX 10 15 2 0
BITMAP
1080
0B00
0E00
0000
0D80
0000
F3C0
60C0
6080
6180
6180
4380
C580
C900
73C0
ENDCHAR
STARTCHAR uni01DB
ENCODING 475
SWIDTH 727 0
DWIDTH 13 0
BBX 13 19 3 0
BITMAP
0C00
0400
0200
0000
06C0
0000
F878
7020
6020
6020
6040
6040
4040
C040
C040
C080
C080
6100
3E00
ENDCHAR
STARTCHAR uni01DC
ENCODING 476
SWIDTH 630 0
DWIDTH 11 0
BBX 10 15 2 0
BITMAP
1800
0800
0400
0000
0D80
0000
F3C0
60C0
6080
6180
6180
4380
C580
C900
73C0
ENDCHAR
STARTCHAR uni01DD
ENCODING 477
SWIDTH 518 0
DWIDTH 9 0
BBX 8 9 2 0
BITMAP
3E
67
83
03
3F
42
C6
CC
70
ENDCHAR
STARTCHAR uni01DE
ENCODING 478
SWIDTH 747 0
DWIDTH 13 0
BBX 13 17 0 0
BITMAP
03E0
0000
01B0
0000
00C0
00C0
01C0
03C0
02C0
0460
0C60
0860
1FE0
1060
2020
4030
F0F8
ENDCHAR
STARTCHAR uni01DF
ENCODING 479
SWIDTH 608 0
DWIDTH 11 0
BBX 10 13 1 0
BITMAP
0F80
0000
06C0
0000
0FC0
10C0
2080
6180
4180
C380
C580
C900
73C0
ENDCHAR
STARTCHAR uni01E0
ENCODING 480
SWIDTH 747 0
DWIDTH 13 0
BBX 13 17 0 0
BITMAP
07C0
0000
0180
0000
00C0
00C0
01C0
03C0
02C0
0460
0C60
0860
1FE0
1060
2020
4030
F0F8
ENDCHAR
STARTCHAR uni01E1
ENCODING 481
SWIDTH 608 0
DWIDTH 11 0
BBX 10 13 1 0
BITMAP
0F80
0000
0600
0000
0FC0
10C0
2080
6180
4180
C380
C580
C900
73C0
ENDCHAR
STARTCHAR uni01E2
ENCODING 482
SWIDTH 907 0
DWIDTH 16 0
BBX 18 15 0 0
BITMAP
007C00
000000
003FC0
007040
007040
00B000
013000
022100
047F00
046000
0FE000
106000
204000
40C100
E3FF00
ENDCHAR
STARTCHAR uni01E3
ENCODING 483
SWIDTH 881 0
DWIDTH 16 0
BBX 14 11 2 0
BITMAP
03E0
0000
0FFC
10CC
208C
618C
41F0
C300
C584
C988
70F0
ENDCHAR
STARTCHAR uni01E4
ENCODING 484
SWIDTH 756 0
DWIDTH 14 0
BBX 14 13 2 0
BITMAP
07F0
1C30
3020
3000
6000
4000
C000
C1F0
C0C0
C3FC
E0C0
70C0
3F00
ENDCHAR
STARTCHAR uni01E5
ENCODING 485
SWIDTH 602 0
DWIDTH 11 0
BBX 10 12 1 -3
BITMAP
07C0
18C0
30C0
2080
6180
6380
6380
6500
7B00
FFC0
C200
7C00
ENDCHAR
STARTCHAR Gcaron
ENCODING 486
SWIDTH 756 0
DWIDTH 14 0
BBX 12 17 2 0
BITMAP
0840
0580
0700
0000
07F0
1C30
3020
3000
6000
4000
C000
C1F0
C0C0
C0C0
E0C0
70C0
3F00
ENDCHAR
STARTCHAR gcaron
ENCODING 487
SWIDTH 602 0
DWIDTH 11 0
BBX 10 16 1 -3
BITMAP
1080
0B00
0E00
0000
07C0
18C0
30C0
2080
6180
6380
6380
6500
7B00
0300
C200
7C00
ENDCHAR
STARTCHAR uni01E8
ENCODING 488
SWIDTH 698 0
DWIDTH 13 0
BBX 14 17 0 0
BITMAP
0420
02C0
0380
0000
1F3C
0C18
0C20
0CC0
1980
1A00
1E00
1B00
1380
31C0
30C0
3060
F9F0
ENDCHAR
STARTCHAR uni01E9
ENCODING 489
SWIDTH 560 0
DWIDTH 10 0
BBX 9 17 2 0
BITMAP
4200
2C00
3800
0000
7000
3000
3000
3000
2180
2300
6600
7800
7800
4C00
4E00
C600
C380
ENDCHAR
STARTCHAR uni01EA
ENCODING 490
SWIDTH 783 0
DWIDTH 14 0
BBX 13 16 2 -3
BITMAP
07C0
0C70
3030
2018
6018
4018
C018
C030
C030
C060
C0C0
6180
3E00
0600
0800
0E00
ENDCHAR
STARTCHAR uni01EB
ENCODING 491
SWIDTH 560 0
DWIDTH 10 0
BBX 9 12 2 -3
BITMAP
0F00
3380
6180
4180
C180
C300
C300
C600
7800
1800
2000
3800
ENDCHAR
STARTCHAR uni01EC
ENCODING 492
SWIDTH 783 0
DWIDTH 14 0
BBX 13 18 2 -3
BITMAP
07C0
0000
07C0
0C70
3030
2018
6018
4018
C018
C030
C030
C060
C0C0
6180
3E00
0600
0800
0E00
ENDCHAR
STARTCHAR uni01ED
ENCODING 493
SWIDTH 560 0
DWIDTH 10 0
BBX 9 14 2 -3
BITMAP
1F00
0000
0F00
3380
6180
4180
C180
C300
C300
C600
7800
1800
2000
3800
ENDCHAR
STARTCHAR uni01F0
ENCODING 496
SWIDTH 343 0
DWIDTH 6 0
BBX 9 16 -1 -3
BITMAP
1080
0B00
0E00
0000
0700
0300
0300
0300
0200
0600
0600
0600
0400
8C00
8800
F000
ENDCHAR
STARTCHAR uni01F4
ENCODING 500
SWIDTH 756 0
DWIDTH 14 0
BBX 12 17 2 0
BITMAP
00C0
0100
0200
0000
07F0
1C30
3020
3000
6000
4000
C000
C1F0
C0C0
C0C0
E0C0
70C0
3F00
ENDCHAR
STARTCHAR uni01F5
ENCODING 501
SWIDTH 602 0
DWIDTH 11 0
BBX 10 16 1 -3
BITMAP
0180
0200
0400
0000
07C0
18C0
30C0
2080
6180
6380
6380
6500
7B00
0300
C200
7C00
ENDCHAR
STARTCHAR uni01F8
ENCODING 504
SWIDTH 762 0
DWIDTH 14 0
BBX 16 17 0 0
BITMAP
0300
0100
0080
0000
3C1F
0C04
0E04
1608
1308
1308
1188
10C8
20D0
2070
2070
2030
F020
ENDCHAR
STARTCHAR uni01F9
ENCODING 505
SWIDTH 631 0
DWIDTH 11 0
BBX 10 13 2 0
BITMAP
1800
0800
0400
0000
F380
24C0
68C0
7080
6180
6180
4180
C180
C3C0
ENDCHAR
STARTCHAR Aringacute
ENCODING 506
SWIDTH 747 0
DWIDTH 13 0
BBX 13 21 0 0
BITMAP
0060
0080
0100
0000
00E0
00A0
00E0
0000
00C0
00C0
01C0
03C0
02C0
0460
0C60
0860
1FE0
1060
2020
4030
F0F8
ENDCHAR
STARTCHAR aringacute
ENCODING 507
SWIDTH 608 0
DWIDTH 11 0
BBX 10 17 1 0
BITMAP
00C0
0100
0200
0000
0380
0280
0380
0000
0FC0
10C0
2080
6180
4180
C380
C580
C900
73C0
ENDCHAR
STARTCHAR AEacute
ENCODING 508
SWIDTH 907 0
DWIDTH 16 0
BBX 18 17 0 0
BITMAP
000C00
001000
002000
000000
003FC0
007040
007040
00B000
013000
022100
047F00
046000
0FE000
106000
204000
40C100
E3FF00
ENDCHAR
STARTCHAR aeacute
ENCODING 509
SWIDTH 881 0
DWIDTH 16 0
BBX 14 13 2 0
BITMAP
0060
0080
0100
0000
0FFC
10CC
208C
618C
41F0
C300
C584
C988
70F0
ENDCHAR
STARTCHAR Oslashacute
ENCODING 510
SWIDTH 783 0
DWIDTH 14 0
BBX 15 17 1 0
BITMAP
0030
0040
0080
0000
03E6
0638
0818
181C
306C
208C
610C
6218
6418
7830
7020
30C0
CF80
ENDCHAR
STARTCHAR oslashacute
ENCODING 511
SWIDTH 560 0
DWIDTH 10 0
BBX 10 13 1 0
BITMAP
0180
0200
0400
0000
0740
1980
31C0
62C0
6480
7980
6100
6300
FC00
ENDCHAR
STARTCHAR Scommaaccent
ENCODING 536
SWIDTH 549 0
DWIDTH 10 0
BBX 10 19 1 -6
BITMAP
0F80
18C0
3040
3040
3800
1C00
0E00
0300
0180
8180
8180
C300
7C00
0000
0C00
0C00
0C00
0800
1800
ENDCHAR
STARTCHAR scommaaccent
ENCODING 537
SWIDTH 440 0
DWIDTH 8 0
BBX 8 15 1 -6
BITMAP
1F
31
31
38
1C
06
82
C6
7C
00
18
18
18
10
30
ENDCHAR
STARTCHAR Tcommaaccent
ENCODING 538
SWIDTH 663 0
DWIDTH 12 0
BBX 12 19 2 -6
BITMAP
FFF0
C610
8610
0400
0C00
0C00
0C00
0C00
0800
1800
1800
1800
7E00
0000
0C00
0C00
0C00
0800
1800
ENDCHAR
STARTCHAR tcommaaccent
ENCODING 539
SWIDTH 355 0
DWIDTH 6 0
BBX 6 18 2 -6
BITMAP
30
30
30
FC
60
60
60
40
C0
C0
C0
70
00
60
60
60
40
C0
ENDCHAR
STARTCHAR uni021E
ENCODING 542
SWIDTH 776 0
DWIDTH 14 0
BBX 16 17 0 0
BITMAP
0210
0160
01C0
0000
1F1F
0C0C
0C0C
080C
1808
1818
1FF8
1818
1018
3010
3030
3030
F8F8
ENDCHAR
STARTCHAR uni021F
ENCODING 543
SWIDTH 631 0
DWIDTH 11 0
BBX 10 17 2 0
BITMAP
4200
2C00
3800
0000
7800
1000
3000
3000
3380
24C0
68C0
7080
6180
6180
4180
C180
C3C0
ENDCHAR
STARTCHAR uni0226
ENCODING 550
SWIDTH 747 0
DWIDTH 13 0
BBX 13 15 0 0
BITMAP
0180
0000
00C0
00C0
01C0
03C0
02C0
0460
0C60
0860
1FE0
1060
2020
4030
F0F8
ENDCHAR
STARTCHAR uni0227
ENCODING 551
SWIDTH 608 0
DWIDTH 11 0
BBX 10 11 1 0
BITMAP
0600
0000
0FC0
10C0
2080
6180
4180
C380
C580
C900
73C0
ENDCHAR
STARTCHAR uni0228
ENCODING 552
SWIDTH 569 0
DWIDTH 10 0
BBX 11 16 1 -3
BITMAP
3FE0
1820
1820
1800
1800
1880
1F80
3100
3000
3000
3080
3080
FF80
0C00
0400
1C00
ENDCHAR
STARTCHAR uni0229
ENCODING 553
SWIDTH 518 0
DWIDTH 9 0
BBX 8 12 2 -3
BITMAP
0E
33
63
42
FC
C0
C1
E6
7C
18
08
38
ENDCHAR
STARTCHAR uni022A
ENCODING 554
SWIDTH 783 0
DWIDTH 14 0
BBX 13 17 2 0
BITMAP
07C0
0000
0360
0000
07C0
0C70
3030
2018
6018
4018
C018
C030
C030
C060
C0C0
6180
3E00
ENDCHAR
STARTCHAR uni022B
ENCODING 555
SWIDTH 560 0
DWIDTH 10 0
BBX 9 13 2 0
BITMAP
1F00
0000
0D80
0000
0F00
3380
6180
4180
C180
C300
C300
C600
7800
ENDCHAR
STARTCHAR uni022C
ENCODING 556
SWIDTH 783 0
DWIDTH 14 0
BBX 13 18 2 0
BITMAP
07C0
0000
0320
04C0
0000
07C0
0C70
3030
2018
6018
4018
C018
C030
C030
C060
C0C0
6180
3E00
ENDCHAR
STARTCHAR uni022D
ENCODING 557
SWIDTH 560 0
DWIDTH 10 0
BBX 9 14 2 0
BITMAP
1F00
0000
0C80
1300
0000
0F00
3380
6180
4180
C180
C300
C300
C600
7800
ENDCHAR
STARTCHAR uni022E
ENCODING 558
SWIDTH 783 0
DWIDTH 14 0
BBX 13 15 2 0
BITMAP
0300
0000
07C0
0C70
3030
2018
6018
4018
C018
C030
C030
C060
C0C0
6180
3E00
ENDCHAR
STARTCHAR uni022F
ENCODING 559
SWIDTH 560 0
DWIDTH 10 0
BBX 9 11 2 0
BITMAP
0C00
0000
0F00
3380
6180
4180
C180
C300
C300
C600
7800
ENDCHAR
STARTCHAR uni0230
ENCODING 560
SWIDTH 783 0
DWIDTH 14 0
BBX 13 17 2 0
BITMAP
07C0
0000
0300
0000
07C0
0C70
3030
2018
6018
4018
C018
C030
C030
C060
C0C0
6180
3E00
ENDCHAR
STARTCHAR uni0231
ENCODING 561
SWIDTH 560 0
DWIDTH 10 0
BBX 9 13 2 0
BITMAP
1F00
0000
0C00
0000
0F00
3380
6180
4180
C180
C300
C300
C600
7800
ENDCHAR
STARTCHAR uni0232
ENCODING 562
SWIDTH 663 0
DWIDTH 12 0
BBX 12 15 2 0
BITMAP
1F00
0000
F870
6060
3040
3080
1900
1A00
1C00
0800
1800
1800
1800
3800
7C00
ENDCHAR
STARTCHAR uni0233
ENCODING 563
SWIDTH 558 0
DWIDTH 10 0
BBX 11 14 0 -3
BITMAP
0F80
0000
7060
1820
1860
0840
0C80
0D00
0E00
0C00
0800
1000
3000
E000
ENDCHAR
STARTCHAR uni0250
ENCODING 592
SWIDTH 608 0
DWIDTH 11 0
BBX 10 9 1 0
BITMAP
F380
24C0
68C0
70C0
6080
6180
4100
C200
FC00
ENDCHAR
STARTCHAR uni0259
ENCODING 601
SWIDTH 518 0
DWIDTH 9 0
BBX 8 9 2 0
BITMAP
3E
67
83
03
3F
42
C6
CC
70
ENDCHAR
STARTCHAR uni025F
ENCODING 607
SWIDTH 380 0
DWIDTH 7 0
BBX 9 17 1 -8
BITMAP
0180
0180
0100
0300
0300
0300
0300
0200
0600
0600
0600
3F00
0400
0C00
8800
8800
F000
ENDCHAR
STARTCHAR uni0265
ENCODING 613
SWIDTH 631 0
DWIDTH 11 0
BBX 10 13 2 -4
BITMAP
F0C0
60C0
6080
6180
6180
4380
C580
C900
7300
0300
0300
0200
0780
ENDCHAR
STARTCHAR uni0275
ENCODING 629
SWIDTH 560 0
DWIDTH 10 0
BBX 9 9 2 0
BITMAP
0F00
3380
6180
4180
FF80
C300
C300
C600
7800
ENDCHAR
STARTCHAR uni0279
ENCODING 633
SWIDTH 470 0
DWIDTH 8 0
BBX 8 9 2 0
BITMAP
03
03
02
02
06
0E
1E
74
CF
ENDCHAR
STARTCHAR uni0287
ENCODING 647
SWIDTH 355 0
DWIDTH 6 0
BBX 6 12 2 0
BITMAP
38
0C
0C
0C
08
18
18
18
FC
30
30
30
ENDCHAR
STARTCHAR uni0289
ENCODING 649
SWIDTH 630 0
DWIDTH 11 0
BBX 10 9 2 0
BITMAP
F3C0
60C0
6080
6180
FFC0
4380
C580
C900
73C0
ENDCHAR
STARTCHAR uni028C
ENCODING 652
SWIDTH 558 0
DWIDTH 10 0
BBX 10 9 1 0
BITMAP
0600
0E00
1E00
1600
2600
4200
C300
8300
C1C0
ENDCHAR
STARTCHAR uni028D
ENCODING 653
SWIDTH 805 0
DWIDTH 14 0
BBX 14 9 1 0
BITMAP
0420
0C60
1C60
3CA0
25B0
4730
C730
8618
C21C
ENDCHAR
STARTCHAR uni028E
ENCODING 654
SWIDTH 558 0
DWIDTH 10 0
BBX 11 12 0 0
BITMAP
00E0
0180
0100
0200
0600
0E00
1600
2600
4200
C300
8300
C1C0
ENDCHAR
STARTCHAR uni029E
ENCODING 670
SWIDTH 560 0
DWIDTH 10 0
BBX 9 13 2 -4
BITMAP
E180
3180
3900
1900
0F00
0F00
3300
6200
C200
0600
0600
0600
0700
ENDCHAR
STARTCHAR uni02BB
ENCODING 699
SWIDTH 265 0
DWIDTH 5 0
BBX 3 5 3 8
BITMAP
60
40
C0
E0
C0
ENDCHAR
STARTCHAR afii57929
ENCODING 700
SWIDTH 265 0
DWIDTH 5 0
BBX 3 5 3 8
BITMAP
60
60
60
40
C0
ENDCHAR
STARTCHAR afii64937
ENCODING 701
SWIDTH 265 0
DWIDTH 5 0
BBX 3 5 3 8
BITMAP
C0
C0
C0
40
60
ENDCHAR
STARTCHAR circumflex
ENCODING 710
SWIDTH 560 0
DWIDTH 10 0
BBX 6 3 5 10
BITMAP
38
68
84
ENDCHAR
STARTCHAR caron
ENCODING 711
SWIDTH 560 0
DWIDTH 10 0
BBX 6 3 5 10
BITMAP
84
58
70
ENDCHAR
STARTCHAR uni02C8
ENCODING 712
SWIDTH 231 0
DWIDTH 4 0
BBX 2 4 3 9
BITMAP
C0
C0
40
40
ENDCHAR
STARTCHAR macron
ENCODING 713
SWIDTH 560 0
DWIDTH 10 0
BBX 5 1 5 12
BITMAP
F8
ENDCHAR
STARTCHAR uni02CA
ENCODING 714
SWIDTH 560 0
DWIDTH 10 0
BBX 4 3 6 10
BITMAP
30
40
80
ENDCHAR
STARTCHAR uni02CB
ENCODING 715
SWIDTH 560 0
DWIDTH 10 0
BBX 3 3 6 10
BITMAP
C0
40
20
ENDCHAR
STARTCHAR uni02CD
ENCODING 717
SWIDTH 560 0
DWIDTH 10 0
BBX 5 1 5 -2
BITMAP
F8
ENDCHAR
STARTCHAR uni02CE
ENCODING 718
SWIDTH 560 0
DWIDTH 10 0
BBX 3 3 6 -4
BITMAP
C0
40
20
ENDCHAR
STARTCHAR uni02CF
ENCODING 719
SWIDTH 560 0
DWIDTH 10 0
BBX 4 3 6 -4
BITMAP
30
40
80
ENDCHAR
STARTCHAR breve
ENCODING 728
SWIDTH 560 0
DWIDTH 10 0
BBX 6 3 5 10
BITMAP
84
D8
70
ENDCHAR
STARTCHAR dotaccent
ENCODING 729
SWIDTH 560 0
DWIDTH 10 0
BBX 2 1 6 12
BITMAP
C0
ENDCHAR
STARTCHAR ring
ENCODING 730
SWIDTH 560 0
DWIDTH 10 0
BBX 3 3 6 11
BITMAP
E0
A0
E0
ENDCHAR
STARTCHAR ogonek
ENCODING 731
SWIDTH 560 0
DWIDTH 10 0
BBX 3 3 3 -3
BITMAP
60
80
E0
ENDCHAR
STARTCHAR tilde
ENCODING 732
SWIDTH 560 0
DWIDTH 10 0
BBX 6 2 5 11
BITMAP
64
98
ENDCHAR
STARTCHAR hungarumlaut
ENCODING 733
SWIDTH 560 0
DWIDTH 10 0
BBX 6 3 5 10
BITMAP
3C
50
A0
ENDCHAR
STARTCHAR uni02EE
ENCODING 750
SWIDTH 457 0
DWIDTH 8 0
BBX 7 5 3 8
BITMAP
66
6E
64
44
C8
ENDCHAR
STARTCHAR uni037E
ENCODING 894
SWIDTH 265 0
DWIDTH 5 0
BBX 5 12 1 -3
BITMAP
18
38
00
00
00
00
00
60
60
60
60
C0
ENDCHAR
STARTCHAR tonos
ENCODING 900
SWIDTH 560 0
DWIDTH 10 0
BBX 4 3 6 10
BITMAP
30
40
80
ENDCHAR
STARTCHAR dieresistonos
ENCODING 901
SWIDTH 560 0
DWIDTH 10 0
BBX 6 5 5 12
BITMAP
0C
10
20
00
D8
ENDCHAR
STARTCHAR anoteleia
ENCODING 903
SWIDTH 608 0
DWIDTH 11 0
BBX 2 1 6 5
BITMAP
C0
ENDCHAR
STARTCHAR mu
ENCODING 956
SWIDTH 663 0
DWIDTH 12 0
BBX 10 12 2 -3
BITMAP
71C0
30C0
3080
2080
6180
6180
6380
6500
7BC0
C000
C000
C000
ENDCHAR
STARTCHAR uni1E00
ENCODING 7680
SWIDTH 747 0
DWIDTH 13 0
BBX 13 17 0 -4
BITMAP
00C0
00C0
01C0
03C0
02C0
0460
0C60
0860
1FE0
1060
2020
4030
F0F8
0000
0700
0500
0700
ENDCHAR
STARTCHAR uni1E01
ENCODING 7681
SWIDTH 608 0
DWIDTH 11 0
BBX 10 13 1 -4
BITMAP
0FC0
10C0
2080
6180
4180
C380
C580
C900
73C0
0000
1C00
1400
1C00
ENDCHAR
STARTCHAR uni1E02
ENCODING 7682
SWIDTH 606 0
DWIDTH 11 0
BBX 11 15 0 0
BITMAP
0600
0000
3FC0
0C60
0C60
0860
1840
1880
1F00
19C0
10C0
30C0
30C0
31C0
FF00
ENDCHAR
STARTCHAR uni1E03
ENCODING 7683
SWIDTH 596 0
DWIDTH 11 0
BBX 10 15 1 0
BITMAP
1800
0000
7800
1000
3000
3000
3380
24C0
28C0
70C0
6080
6180
4100
C200
FC00
ENDCHAR
STARTCHAR uni1E04
ENCODING 7684
SWIDTH 606 0
DWIDTH 11 0
BBX 11 15 0 -2
BITMAP
3FC0
0C60
0C60
0860
1840
1880
1F00
19C0
10C0
30C0
30C0
31C0
FF00
0000
0C00
ENDCHAR
STARTCHAR uni1E05
ENCODING 7685
SWIDTH 596 0
DWIDTH 11 0
BBX 10 15 1 -2
BITMAP
7800
1000
3000
3000
3380
24C0
28C0
70C0
6080
6180
4100
C200
FC00
0000
1800
ENDCHAR
STARTCHAR uni1E06
ENCODING 7686
SWIDTH 606 0
DWIDTH 11 0
BBX 11 15 0 -2
BITMAP
3FC0
0C60
0C60
0860
1840
1880
1F00
19C0
10C0
30C0
30C0
31C0
FF00
0000
1F00
ENDCHAR
STARTCHAR uni1E07
ENCODING 7687
SWIDTH 596 0
DWIDTH 11 0
BBX 10 15 1 -2
BITMAP
7800
1000
3000
3000
3380
24C0
28C0
70C0
6080
6180
4100
C200
FC00
0000
3E00
ENDCHAR
STARTCHAR uni1E08
ENCODING 7688
SWIDTH 714 0
DWIDTH 13 0
BBX 12 20 2 -3
BITMAP
0180
0200
0400
0000
07F0
1C30
3030
3000
6000
6000
C000
C000
C000
C000
E000
70C0
3F00
1000
0800
3800
ENDCHAR
STARTCHAR uni1E09
ENCODING 7689
SWIDTH 487 0
DWIDTH 9 0
BBX 8 16 2 -3
BITMAP
06
08
10
00
0F
31
61
40
C0
C0
C0
C2
7C
20
10
70
ENDCHAR
STARTCHAR uni1E0A
ENCODING 7690
SWIDTH 770 0
DWIDTH 14 0
BBX 14 15 0 0
BITMAP
0180
0000
3FF0
0C38
0C1C
080C
180C
180C
180C
180C
3018
3018
3030
30E0
FF80
ENDCHAR
STARTCHAR uni1E0B
ENCODING 7691
SWIDTH 608 0
DWIDTH 11 0
BBX 11 15 1 0
BITMAP
0180
0000
01E0
0060
0040
00C0
0FC0
10C0
20C0
6080
4180
C380
C580
C900
73C0
ENDCHAR
STARTCHAR uni1E0C
ENCODING 7692
SWIDTH 770 0
DWIDTH 14 0
BBX 14 15 0 -2
BITMAP
3FF0
0C38
0C1C
080C
180C
180C
180C
180C
3018
3018
3030
30E0
FF80
0000
0600
ENDCHAR
STARTCHAR uni1E0D
ENCODING 7693
SWIDTH 608 0
DWIDTH 11 0
BBX 11 15 1 -2
BITMAP
01E0
0060
0040
00C0
0FC0
10C0
20C0
6080
4180
C380
C580
C900
73C0
0000
0C00
ENDCHAR
STARTCHAR uni1E0E
ENCODING 7694
SWIDTH 770 0
DWIDTH 14 0
BBX 14 15 0 -2
BITMAP
3FF0
0C38
0C1C
080C
180C
180C
180C
180C
3018
3018
3030
30E0
FF80
0000
0F80
ENDCHAR
STARTCHAR uni1E0F
ENCODING 7695
SWIDTH 608 0
DWIDTH 11 0
BBX 11 15 1 -2
BITMAP
01E0
0060
0040
00C0
0FC0
10C0
20C0
6080
4180
C380
C580
C900
73C0
0000
1F00
ENDCHAR
STARTCHAR uni1E10
ENCODING 7696
SWIDTH 770 0
DWIDTH 14 0
BBX 14 16 0 -3
BITMAP
3FF0
0C38
0C1C
080C
180C
180C
180C
180C
3018
3018
3030
30E0
FF80
0300
0100
0700
ENDCHAR
STARTCHAR uni1E11
ENCODING 7697
SWIDTH 608 0
DWIDTH 11 0
BBX 11 16 1 -3
BITMAP
01E0
0060
0040
00C0
0FC0
10C0
20C0
6080
4180
C380
C580
C900
73C0
0C00
0400
1C00
ENDCHAR
STARTCHAR uni1E12
ENCODING 7698
SWIDTH 770 0
DWIDTH 14 0
BBX 14 17 0 -4
BITMAP
3FF0
0C38
0C1C
080C
180C
180C
180C
180C
3018
3018
3030
30E0
FF80
0000
0700
0D00
1080
ENDCHAR
STARTCHAR uni1E13
ENCODING 7699
SWIDTH 608 0
DWIDTH 11 0
BBX 11 17 1 -4
BITMAP
01E0
0060
0040
00C0
0FC0
10C0
20C0
6080
4180
C380
C580
C900
73C0
0000
0E00
1A00
2100
ENDCHAR
STARTCHAR uni1E14
ENCODING 7700
SWIDTH 569 0
DWIDTH 10 0
BBX 11 19 1 0
BITMAP
0C00
0400
0200
0000
1F00
0000
3FE0
1820
1820
1800
1800
1880
1F80
3100
3000
3000
3080
3080
FF80
ENDCHAR
STARTCHAR uni1E15
ENCODING 7701
SWIDTH 518 0
DWIDTH 9 0
BBX 8 15 2 0
BITMAP
30
10
08
00
3E
00
0E
33
63
42
FC
C0
C1
E6
7C
ENDCHAR
STARTCHAR uni1E16
ENCODING 7702
SWIDTH 569 0
DWIDTH 10 0
BBX 11 19 1 0
BITMAP
0180
0200
0400
0000
1F00
0000
3FE0
1820
1820
1800
1800
1880
1F80
3100
3000
3000
3080
3080
FF80
ENDCHAR
STARTCHAR uni1E17
ENCODING 7703
SWIDTH 518 0
DWIDTH 9 0
BBX 8 15 2 0
BITMAP
03
04
08
00
3E
00
0E
33
63
42
FC
C0
C1
E6
7C
ENDCHAR
STARTCHAR uni1E18
ENCODING 7704
SWIDTH 569 0
DWIDTH 10 0
BBX 11 17 1 -4
BITMAP
3FE0
1820
1820
1800
1800
1880
1F80
3100
3000
3000
3080
3080
FF80
0000
1C00
3400
4200
ENDCHAR
STARTCHAR uni1E19
ENCODING 7705
SWIDTH 518 0
DWIDTH 9 0
BBX 8 13 2 -4
BITMAP
0E
33
63
42
FC
C0
C1
E6
7C
00
38
68
84
ENDCHAR
STARTCHAR uni1E1A
ENCODING 7706
SWIDTH 569 0
DWIDTH 10 0
BBX 11 16 1 -3
BITMAP
3FE0
1820
1820
1800
1800
1880
1F80
3100
3000
3000
3080
3080
FF80
0000
1900
2600
ENDCHAR
STARTCHAR uni1E1B
ENCODING 7707
SWIDTH 518 0
DWIDTH 9 0
BBX 8 12 2 -3
BITMAP
0E
33
63
42
FC
C0
C1
E6
7C
00
64
98
ENDCHAR
STARTCHAR uni1E1C
ENCODING 7708
SWIDTH 569 0
DWIDTH 10 0
BBX 11 20 1 -3
BITMAP
1080
1B00
0E00
0000
3FE0
1820
1820
1800
1800
1880
1F80
3100
3000
3000
3080
3080
FF80
0C00
0400
1C00
ENDCHAR
STARTCHAR uni1E1D
ENCODING 7709
SWIDTH 518 0
DWIDTH 9 0
BBX 8 16 2 -3
BITMAP
21
36
1C
00
0E
33
63
42
FC
C0
C1
E6
7C
18
08
38
ENDCHAR
STARTCHAR uni1E1E
ENCODING 7710
SWIDTH 551 0
DWIDTH 10 0
BBX 11 15 1 0
BITMAP
0600
0000
3FE0
1820
1820
1800
1800
1880
1F80
3100
3000
3000
3000
3000
F800
ENDCHAR
STARTCHAR uni1E1F
ENCODING 7711
SWIDTH 380 0
DWIDTH 7 0
BBX 9 19 1 -3
BITMAP
0C00
0000
0780
0880
0880
1800
1000
7E00
3000
3000
3000
2000
6000
6000
6000
6000
4000
C000
C000
ENDCHAR
STARTCHAR uni1E20
ENCODING 7712
SWIDTH 756 0
DWIDTH 14 0
BBX 12 15 2 0
BITMAP
0F80
0000
07F0
1C30
3020
3000
6000
4000
C000
C1F0
C0C0
C0C0
E0C0
70C0
3F00
ENDCHAR
STARTCHAR uni1E21
ENCODING 7713
SWIDTH 602 0
DWIDTH 11 0
BBX 10 14 1 -3
BITMAP
0F80
0000
07C0
18C0
30C0
2080
6180
6380
6380
6500
7B00
0300
C200
7C00
ENDCHAR
STARTCHAR uni1E22
ENCODING 7714
SWIDTH 776 0
DWIDTH 14 0
BBX 16 15 0 0
BITMAP
00C0
0000
1F1F
0C0C
0C0C
080C
1808
1818
1FF8
1818
1018
3010
3030
3030
F8F8
ENDCHAR
STARTCHAR uni1E23
ENCODING 7715
SWIDTH 631 0
DWIDTH 11 0
BBX 10 15 2 0
BITMAP
1800
0000
7800
1000
3000
3000
3380
24C0
68C0
7080
6180
6180
4180
C180
C3C0
ENDCHAR
STARTCHAR uni1E24
ENCODING 7716
SWIDTH 776 0
DWIDTH 14 0
BBX 16 15 0 -2
BITMAP
1F1F
0C0C
0C0C
080C
1808
1818
1FF8
1818
1018
3010
3030
3030
F8F8
0000
0300
ENDCHAR
STARTCHAR uni1E25
ENCODING 7717
SWIDTH 631 0
DWIDTH 11 0
BBX 10 15 2 -2
BITMAP
7800
1000
3000
3000
3380
24C0
68C0
7080
6180
6180
4180
C180
C3C0
0000
0C00
ENDCHAR
STARTCHAR uni1E26
ENCODING 7718
SWIDTH 776 0
DWIDTH 14 0
BBX 16 15 0 0
BITMAP
0360
0000
1F1F
0C0C
0C0C
080C
1808
1818
1FF8
1818
1018
3010
3030
3030
F8F8
ENDCHAR
STARTCHAR uni1E27
ENCODING 7719
SWIDTH 631 0
DWIDTH 11 0
BBX 10 15 2 0
BITMAP
6C00
0000
7800
1000
3000
3000
3380
24C0
68C0
7080
6180
6180
4180
C180
C3C0
ENDCHAR
STARTCHAR uni1E28
ENCODING 7720
SWIDTH 776 0
DWIDTH 14 0
BBX 16 16 0 -3
BITMAP
1F1F
0C0C
0C0C
080C
1808
1818
1FF8
1818
1018
3010
3030
3030
F8F8
0300
0100
0700
ENDCHAR
STARTCHAR uni1E29
ENCODING 7721
SWIDTH 631 0
DWIDTH 11 0
BBX 10 16 2 -3
BITMAP
7800
1000
3000
3000
3380
24C0
68C0
7080
6180
6180
4180
C180
C3C0
0C00
0400
1C00
ENDCHAR
STARTCHAR uni1E2A
ENCODING 7722
SWIDTH 776 0
DWIDTH 14 0
BBX 16 17 0 -4
BITMAP
1F1F
0C0C
0C0C
080C
1808
1818
1FF8
1818
1018
3010
3030
3030
F8F8
0000
0840
0D80
0700
ENDCHAR
STARTCHAR uni1E2B
ENCODING 7723
SWIDTH 631 0
DWIDTH 11 0
BBX 10 17 2 -4
BITMAP
7800
1000
3000
3000
3380
24C0
68C0
7080
6180
6180
4180
C180
C3C0
0000
2100
3600
1C00
ENDCHAR
STARTCHAR uni1E2C
ENCODING 7724
SWIDTH 325 0
DWIDTH 6 0
BBX 8 16 0 -3
BITMAP
1F
0C
0C
0C
08
18
18
18
10
30
30
30
F8
00
64
98
ENDCHAR
STARTCHAR uni1E2D
ENCODING 7725
SWIDTH 289 0
DWIDTH 5 0
BBX 6 16 0 -3
BITMAP
0C
00
00
00
38
18
18
18
10
10
10
30
38
00
64
98
ENDCHAR
STARTCHAR uni1E2E
ENCODING 7726
SWIDTH 325 0
DWIDTH 6 0
BBX 8 19 0 0
BITMAP
03
04
08
00
1B
00
1F
0C
0C
0C
08
18
18
18
10
30
30
30
F8
ENDCHAR
STARTCHAR uni1E2F
ENCODING 7727
SWIDTH 289 0
DWIDTH 5 0
BBX 6 15 2 0
BITMAP
0C
10
20
00
6C
00
F0
30
20
60
60
60
40
C0
F0
ENDCHAR
STARTCHAR uni1E30
ENCODING 7728
SWIDTH 698 0
DWIDTH 13 0
BBX 14 17 0 0
BITMAP
0060
0080
0100
0000
1F3C
0C18
0C20
0CC0
1980
1A00
1E00
1B00
1380
31C0
30C0
3060
F9F0
ENDCHAR
STARTCHAR uni1E31
ENCODING 7729
SWIDTH 560 0
DWIDTH 10 0
BBX 9 17 2 0
BITMAP
0C00
1000
2000
0000
7000
3000
3000
3000
2180
2300
6600
7800
7800
4C00
4E00
C600
C380
ENDCHAR
STARTCHAR uni1E32
ENCODING 7730
SWIDTH 698 0
DWIDTH 13 0
BBX 14 15 0 -2
BITMAP
1F3C
0C18
0C20
0CC0
1980
1A00
1E00
1B00
1380
31C0
30C0
3060
F9F0
0000
0600
ENDCHAR
STARTCHAR uni1E33
ENCODING 7731
SWIDTH 560 0
DWIDTH 10 0
BBX 9 15 2 -2
BITMAP
7000
3000
3000
3000
2180
2300
6600
7800
7800
4C00
4E00
C600
C380
0000
1800
ENDCHAR
STARTCHAR uni1E34
ENCODING 7732
SWIDTH 698 0
DWIDTH 13 0
BBX 14 15 0 -2
BITMAP
1F3C
0C18
0C20
0CC0
1980
1A00
1E00
1B00
1380
31C0
30C0
3060
F9F0
0000
0F80
ENDCHAR
STARTCHAR uni1E35
ENCODING 7733
SWIDTH 560 0
DWIDTH 10 0
BBX 9 15 2 -2
BITMAP
7000
3000
3000
3000
2180
2300
6600
7800
7800
4C00
4E00
C600
C380
0000
3E00
ENDCHAR
STARTCHAR uni1E36
ENCODING 7734
SWIDTH 572 0
DWIDTH 10 0
BBX 10 15 0 -2
BITMAP
3F00
0C00
0C00
0800
1800
1800
1800
1800
3000
3000
3040
30C0
FFC0
0000
0C00
ENDCHAR
STARTCHAR uni1E37
ENCODING 7735
SWIDTH 289 0
DWIDTH 5 0
BBX 5 15 1 -2
BITMAP
78
18
10
30
30
30
20
60
60
60
40
C0
F0
00
60
ENDCHAR
STARTCHAR uni1E38
ENCODING 7736
SWIDTH 572 0
DWIDTH 10 0
BBX 10 17 0 -2
BITMAP
3E00
0000
3F00
0C00
0C00
0800
1800
1800
1800
1800
3000
3000
3040
30C0
FFC0
0000
0C00
ENDCHAR
STARTCHAR uni1E39
ENCODING 7737
SWIDTH 289 0
DWIDTH 5 0
BBX 6 17 1 -2
BITMAP
7C
00
78
18
10
30
30
30
20
60
60
60
40
C0
F0
00
60
ENDCHAR
STARTCHAR uni1E3A
ENCODING 7738
SWIDTH 572 0
DWIDTH 10 0
BBX 10 15 0 -2
BITMAP
3F00
0C00
0C00
0800
1800
1800
1800
1800
3000
3000
3040
30C0
FFC0
0000
1F00
ENDCHAR
STARTCHAR uni1E3B
ENCODING 7739
SWIDTH 289 0
DWIDTH 5 0
BBX 6 15 0 -2
BITMAP
3C
0C
08
18
18
18
10
30
30
30
20
60
78
00
F8
ENDCHAR
STARTCHAR uni1E3C
ENCODING 7740
SWIDTH 572 0
DWIDTH 10 0
BBX 10 17 0 -4
BITMAP
3F00
0C00
0C00
0800
1800
1800
1800
1800
3000
3000
3040
30C0
FFC0
0000
0E00
1A00
2100
ENDCHAR
STARTCHAR uni1E3D
ENCODING 7741
SWIDTH 289 0
DWIDTH 5 0
BBX 6 17 0 -4
BITMAP
3C
0C
08
18
18
18
10
30
30
30
20
60
78
00
38
68
84
ENDCHAR
STARTCHAR uni1E3E
ENCODING 7742
SWIDTH 865 0
DWIDTH 16 0
BBX 17 17 1 0
BITMAP
003000
004000
008000
000000
3C0780
0C0600
0C0E00
161E00
161600
162400
126C00
134C00
238C00
238800
210800
201800
F03E00
ENDCHAR
STARTCHAR uni1E3F
ENCODING 7743
SWIDTH 944 0
DWIDTH 17 0
BBX 15 13 2 0
BITMAP
0060
0080
0100
0000
F39C
2DB6
79E6
71C4
618C
410C
430C
C30C
C30E
ENDCHAR
STARTCHAR uni1E40
ENCODING 7744
SWIDTH 865 0
DWIDTH 16 0
BBX 17 15 1 0
BITMAP
00C000
000000
3C0780
0C0600
0C0E00
161E00
161600
162400
126C00
134C00
238C00
238800
210800
201800
F03E00
ENDCHAR
STARTCHAR uni1E41
ENCODING 7745
SWIDTH 944 0
DWIDTH 17 0
BBX 15 11 2 0
BITMAP
0180
0000
F39C
2DB6
79E6
71C4
618C
410C
430C
C30C
C30E
ENDCHAR
STARTCHAR uni1E42
ENCODING 7746
SWIDTH 865 0
DWIDTH 16 0
BBX 17 15 1 -2
BITMAP
3C0780
0C0600
0C0E00
161E00
161600
162400
126C00
134C00
238C00
238800
210800
201800
F03E00
000000
018000
ENDCHAR
STARTCHAR uni1E43
ENCODING 7747
SWIDTH 944 0
DWIDTH 17 0
BBX 15 11 2 -2
BITMAP
F39C
2DB6
79E6
71C4
618C
410C
430C
C30C
C30E
0000
0180
ENDCHAR
STARTCHAR uni1E44
ENCODING 7748
SWIDTH 762 0
DWIDTH 14 0
BBX 16 15 0 0
BITMAP
0180
0000
3C1F
0C04
0E04
1608
1308
1308
1188
10C8
20D0
2070
2070
2030
F020
ENDCHAR
STARTCHAR uni1E45
ENCODING 7749
SWIDTH 631 0
DWIDTH 11 0
BBX 10 11 2 0
BITMAP
0C00
0000
F380
24C0
68C0
7080
6180
6180
4180
C180
C3C0
ENDCHAR
STARTCHAR uni1E46
ENCODING 7750
SWIDTH 762 0
DWIDTH 14 0
BBX 16 15 0 -2
BITMAP
3C1F
0C04
0E04
1608
1308
1308
1188
10C8
20D0
2070
2070
2030
F020
0000
0300
ENDCHAR
STARTCHAR uni1E47
ENCODING 7751
SWIDTH 631 0
DWIDTH 11 0
BBX 10 11 2 -2
BITMAP
F380
24C0
68C0
7080
6180
6180
4180
C180
C3C0
0000
0C00
ENDCHAR
STARTCHAR uni1E48
ENCODING 7752
SWIDTH 762 0
DWIDTH 14 0
BBX 16 15 0 -2
BITMAP
3C1F
0C04
0E04
1608
1308
1308
1188
10C8
20D0
2070
2070
2030
F020
0000
07C0
ENDCHAR
STARTCHAR uni1E49
ENCODING 7753
SWIDTH 631 0
DWIDTH 11 0
BBX 10 11 2 -2
BITMAP
F380
24C0
68C0
7080
6180
6180
4180
C180
C3C0
0000
1F00
ENDCHAR
STARTCHAR uni1E4A
ENCODING 7754
SWIDTH 762 0
DWIDTH 14 0
BBX 16 17 0 -4
BITMAP
3C1F
0C04
0E04
1608
1308
1308
1188
10C8
20D0
2070
2070
2030
F020
0000
0380
0680
0840
ENDCHAR
STARTCHAR uni1E4B
ENCODING 7755
SWIDTH 631 0
DWIDTH 11 0
BBX 10 13 2 -4
BITMAP
F380
24C0
68C0
7080
6180
6180
4180
C180
C3C0
0000
0E00
1A00
2100
ENDCHAR
STARTCHAR uni1E4C
ENCODING 7756
SWIDTH 783 0
DWIDTH 14 0
BBX 13 20 2 0
BITMAP
00C0
0100
0200
0000
0320
04C0
0000
07C0
0C70
3030
2018
6018
4018
C018
C030
C030
C060
C0C0
6180
3E00
ENDCHAR
STARTCHAR uni1E4D
ENCODING 7757
SWIDTH 560 0
DWIDTH 10 0
BBX 9 16 2 0
BITMAP
0180
0200
0400
0000
0C80
1300
0000
0F00
3380
6180
4180
C180
C300
C300
C600
7800
ENDCHAR
STARTCHAR uni1E4E
ENCODING 7758
SWIDTH 783 0
DWIDTH 14 0
BBX 13 18 2 0
BITMAP
06C0
0000
0320
04C0
0000
07C0
0C70
3030
2018
6018
4018
C018
C030
C030
C060
C0C0
6180
3E00
ENDCHAR
STARTCHAR uni1E4F
ENCODING 7759
SWIDTH 560 0
DWIDTH 10 0
BBX 9 14 2 0
BITMAP
1B00
0000
0C80
1300
0000
0F00
3380
6180
4180
C180
C300
C300
C600
7800
ENDCHAR
STARTCHAR uni1E50
ENCODING 7760
SWIDTH 783 0
DWIDTH 14 0
BBX 13 19 2 0
BITMAP
0600
0200
0100
0000
07C0
0000
07C0
0C70
3030
2018
6018
4018
C018
C030
C030
C060
C0C0
6180
3E00
ENDCHAR
STARTCHAR uni1E51
ENCODING 7761
SWIDTH 560 0
DWIDTH 10 0
BBX 9 15 2 0
BITMAP
1800
0800
0400
0000
1F00
0000
0F00
3380
6180
4180
C180
C300
C300
C600
7800
ENDCHAR
STARTCHAR uni1E52
ENCODING 7762
SWIDTH 783 0
DWIDTH 14 0
BBX 13 19 2 0
BITMAP
00C0
0100
0200
0000
07C0
0000
07C0
0C70
3030
2018
6018
4018
C018
C030
C030
C060
C0C0
6180
3E00
ENDCHAR
STARTCHAR uni1E53
ENCODING 7763
SWIDTH 560 0
DWIDTH 10 0
BBX 9 15 2 0
BITMAP
0300
0400
0800
0000
1F00
0000
0F00
3380
6180
4180
C180
C300
C300
C600
7800
ENDCHAR
STARTCHAR uni1E54
ENCODING 7764
SWIDTH 579 0
DWIDTH 10 0
BBX 12 17 0 0
BITMAP
00C0
0100
0200
0000
1FE0
0C30
0C30
0C30
1830
1860
18C0
1F80
1800
3000
3000
3000
FC00
ENDCHAR
STARTCHAR uni1E55
ENCODING 7765
SWIDTH 608 0
DWIDTH 11 0
BBX 10 16 1 -3
BITMAP
0300
0400
0800
0000
7380
34C0
38C0
30C0
3080
6180
6100
6200
7C00
4000
C000
C000
ENDCHAR
STARTCHAR uni1E56
ENCODING 7766
SWIDTH 579 0
DWIDTH 10 0
BBX 12 15 0 0
BITMAP
0300
0000
1FE0
0C30
0C30
0C30
1830
1860
18C0
1F80
1800
3000
3000
3000
FC00
ENDCHAR
STARTCHAR uni1E57
ENCODING 7767
SWIDTH 608 0
DWIDTH 11 0
BBX 10 14 1 -3
BITMAP
0C00
0000
7380
34C0
38C0
30C0
3080
6180
6100
6200
7C00
4000
C000
C000
ENDCHAR
STARTCHAR uni1E58
ENCODING 7768
SWIDTH 686 0
DWIDTH 12 0
BBX 12 15 0 0
BITMAP
0300
0000
1FE0
0C60
0C30
0820
1860
18C0
1F00
1B00
1180
3180
30C0
30E0
F870
ENDCHAR
STARTCHAR uni1E59
ENCODING 7769
SWIDTH 470 0
DWIDTH 8 0
BBX 8 11 2 0
BITMAP
18
00
F3
2E
78
70
60
40
40
C0
C0
ENDCHAR
STARTCHAR uni1E5A
ENCODING 7770
SWIDTH 686 0
DWIDTH 12 0
BBX 12 15 0 -2
BITMAP
1FE0
0C60
0C30
0820
1860
18C0
1F00
1B00
1180
3180
30C0
30E0
F870
0000
0600
ENDCHAR
STARTCHAR uni1E5B
ENCODING 7771
SWIDTH 470 0
DWIDTH 8 0
BBX 8 11 2 -2
BITMAP
F3
2E
78
70
60
40
40
C0
C0
00
60
ENDCHAR
STARTCHAR uni1E5C
ENCODING 7772
SWIDTH 686 0
DWIDTH 12 0
BBX 12 17 0 -2
BITMAP
0F80
0000
1FE0
0C60
0C30
0820
1860
18C0
1F00
1B00
1180
3180
30C0
30E0
F870
0000
0600
ENDCHAR
STARTCHAR uni1E5D
ENCODING 7773
SWIDTH 470 0
DWIDTH 8 0
BBX 8 13 2 -2
BITMAP
7C
00
F3
2E
78
70
60
40
40
C0
C0
00
60
ENDCHAR
STARTCHAR uni1E5E
ENCODING 7774
SWIDTH 686 0
DWIDTH 12 0
BBX 12 15 0 -2
BITMAP
1FE0
0C60
0C30
0820
1860
18C0
1F00
1B00
1180
3180
30C0
30E0
F870
0000
1F00
ENDCHAR
STARTCHAR uni1E5F
ENCODING 7775
SWIDTH 470 0
DWIDTH 8 0
BBX 8 11 2 -2
BITMAP
F3
2E
78
70
60
40
40
C0
C0
00
F8
ENDCHAR
STARTCHAR uni1E60
ENCODING 7776
SWIDTH 549 0
DWIDTH 10 0
BBX 10 15 1 0
BITMAP
0600
0000
0F80
18C0
3040
3040
3800
1C00
0E00
0300
0180
8180
8180
C300
7C00
ENDCHAR
STARTCHAR uni1E61
ENCODING 7777
SWIDTH 440 0
DWIDTH 8 0
BBX 8 11 1 0
BITMAP
0C
00
1F
31
31
38
1C
06
82
C6
7C
ENDCHAR
STARTCHAR uni1E62
ENCODING 7778
SWIDTH 549 0
DWIDTH 10 0
BBX 10 15 1 -2
BITMAP
0F80
18C0
3040
3040
3800
1C00
0E00
0300
0180
8180
8180
C300
7C00
0000
0C00
ENDCHAR
STARTCHAR uni1E63
ENCODING 7779
SWIDTH 440 0
DWIDTH 8 0
BBX 8 11 1 -2
BITMAP
1F
31
31
38
1C
06
82
C6
7C
00
18
ENDCHAR
STARTCHAR uni1E64
ENCODING 7780
SWIDTH 549 0
DWIDTH 10 0
BBX 10 19 1 0
BITMAP
0600
0000
0180
0200
0400
0000
0F80
18C0
3040
3040
3800
1C00
0E00
0300
0180
8180
8180
C300
7C00
ENDCHAR
STARTCHAR uni1E65
ENCODING 7781
SWIDTH 440 0
DWIDTH 8 0
BBX 8 15 1 0
BITMAP
0C
00
03
04
08
00
1F
31
31
38
1C
06
82
C6
7C
ENDCHAR
STARTCHAR uni1E66
ENCODING 7782
SWIDTH 549 0
DWIDTH 10 0
BBX 10 19 1 0
BITMAP
0600
0000
0840
0580
0700
0000
0F80
18C0
3040
3040
3800
1C00
0E00
0300
0180
8180
8180
C300
7C00
ENDCHAR
STARTCHAR uni1E67
ENCODING 7783
SWIDTH 440 0
DWIDTH 8 0
BBX 10 15 1 0
BITMAP
0600
0000
0840
0580
0700
0000
1F00
3100
3100
3800
1C00
0600
8200
C600
7C00
ENDCHAR
STARTCHAR uni1E68
ENCODING 7784
SWIDTH 549 0
DWIDTH 10 0
BBX 10 17 1 -2
BITMAP
0600
0000
0F80
18C0
3040
3040
3800
1C00
0E00
0300
0180
8180
8180
C300
7C00
0000
0C00
ENDCHAR
STARTCHAR uni1E69
ENCODING 7785
SWIDTH 440 0
DWIDTH 8 0
BBX 8 13 1 -2
BITMAP
0C
00
1F
31
31
38
1C
06
82
C6
7C
00
18
ENDCHAR
STARTCHAR uni1E6A
ENCODING 7786
SWIDTH 663 0
DWIDTH 12 0
BBX 12 15 2 0
BITMAP
0600
0000
FFF0
C610
8610
0400
0C00
0C00
0C00
0C00
0800
1800
1800
1800
7E00
ENDCHAR
STARTCHAR uni1E6B
ENCODING 7787
SWIDTH 355 0
DWIDTH 6 0
BBX 6 14 2 0
BITMAP
30
00
30
30
30
FC
60
60
60
40
C0
C0
C0
70
ENDCHAR
STARTCHAR uni1E6C
ENCODING 7788
SWIDTH 663 0
DWIDTH 12 0
BBX 12 15 2 -2
BITMAP
FFF0
C610
8610
0400
0C00
0C00
0C00
0C00
0800
1800
1800
1800
7E00
0000
0C00
ENDCHAR
STARTCHAR uni1E6D
ENCODING 7789
SWIDTH 355 0
DWIDTH 6 0
BBX 6 14 2 -2
BITMAP
30
30
30
FC
60
60
60
40
C0
C0
C0
70
00
60
ENDCHAR
STARTCHAR uni1E6E
ENCODING 7790
SWIDTH 663 0
DWIDTH 12 0
BBX 12 15 2 -2
BITMAP
FFF0
C610
8610
0400
0C00
0C00
0C00
0C00
0800
1800
1800
1800
7E00
0000
3E00
ENDCHAR
STARTCHAR uni1E6F
ENCODING 7791
SWIDTH 355 0
DWIDTH 6 0
BBX 6 14 2 -2
BITMAP
30
30
30
FC
60
60
60
40
C0
C0
C0
70
00
F8
ENDCHAR
STARTCHAR uni1E70
ENCODING 7792
SWIDTH 663 0
DWIDTH 12 0
BBX 12 17 2 -4
BITMAP
FFF0
C610
8610
0400
0C00
0C00
0C00
0C00
0800
1800
1800
1800
7E00
0000
1C00
3400
4200
ENDCHAR
STARTCHAR uni1E71
ENCODING 7793
SWIDTH 355 0
DWIDTH 6 0
BBX 7 16 1 -4
BITMAP
18
18
18
7E
30
30
30
20
60
60
60
38
00
38
68
84
ENDCHAR
STARTCHAR uni1E72
ENCODING 7794
SWIDTH 727 0
DWIDTH 13 0
BBX 13 15 3 -2
BITMAP
F878
7020
6020
6020
6040
6040
4040
C040
C040
C080
C080
6100
3E00
0000
3600
ENDCHAR
STARTCHAR uni1E73
ENCODING 7795
SWIDTH 630 0
DWIDTH 11 0
BBX 10 11 2 -2
BITMAP
F3C0
60C0
6080
6180
6180
4380
C580
C900
73C0
0000
3600
ENDCHAR
STARTCHAR uni1E74
ENCODING 7796
SWIDTH 727 0
DWIDTH 13 0
BBX 13 16 3 -3
BITMAP
F878
7020
6020
6020
6040
6040
4040
C040
C040
C080
C080
6100
3E00
0000
1900
2600
ENDCHAR
STARTCHAR uni1E75
ENCODING 7797
SWIDTH 630 0
DWIDTH 11 0
BBX 10 12 2 -3
BITMAP
F3C0
60C0
6080
6180
6180
4380
C580
C900
73C0
0000
1900
2600
ENDCHAR
STARTCHAR uni1E76
ENCODING 7798
SWIDTH 727 0
DWIDTH 13 0
BBX 13 17 3 -4
BITMAP
F878
7020
6020
6020
6040
6040
4040
C040
C040
C080
C080
6100
3E00
0000
1C00
3400
4200
ENDCHAR
STARTCHAR uni1E77
ENCODING 7799
SWIDTH 630 0
DWIDTH 11 0
BBX 10 13 2 -4
BITMAP
F3C0
60C0
6080
6180
6180
4380
C580
C900
73C0
0000
0E00
1A00
2100
ENDCHAR
STARTCHAR uni1E78
ENCODING 7800
SWIDTH 727 0
DWIDTH 13 0
BBX 13 20 3 0
BITMAP
0180
0200
0400
0000
0C80
1300
0000
F878
7020
6020
6020
6040
6040
4040
C040
C040
C080
C080
6100
3E00
ENDCHAR
STARTCHAR uni1E79
ENCODING 7801
SWIDTH 630 0
DWIDTH 11 0
BBX 10 16 2 0
BITMAP
0300
0400
0800
0000
1900
2600
0000
F3C0
60C0
6080
6180
6180
4380
C580
C900
73C0
ENDCHAR
STARTCHAR uni1E7A
ENCODING 7802
SWIDTH 727 0
DWIDTH 13 0
BBX 13 17 3 0
BITMAP
1B00
0000
1F00
0000
F878
7020
6020
6020
6040
6040
4040
C040
C040
C080
C080
6100
3E00
ENDCHAR
STARTCHAR uni1E7B
ENCODING 7803
SWIDTH 630 0
DWIDTH 11 0
BBX 10 13 2 0
BITMAP
3600
0000
3E00
0000
F3C0
60C0
6080
6180
6180
4380
C580
C900
73C0
ENDCHAR
STARTCHAR uni1E7C
ENCODING 7804
SWIDTH 656 0
DWIDTH 12 0
BBX 13 16 2 0
BITMAP
0C80
1300
0000
F838
6010
6020
2060
3040
3080
3180
3100
1200
1A00
1C00
1800
1800
ENDCHAR
STARTCHAR uni1E7D
ENCODING 7805
SWIDTH 558 0
DWIDTH 10 0
BBX 10 12 1 0
BITMAP
1900
2600
0000
E0C0
3040
30C0
1080
1900
1A00
1E00
1C00
1800
ENDCHAR
STARTCHAR uni1E7E
ENCODING 7806
SWIDTH 656 0
DWIDTH 12 0
BBX 13 15 2 -2
BITMAP
F838
6010
6020
2060
3040
3080
3180
3100
1200
1A00
1C00
1800
1800
0000
0C00
ENDCHAR
STARTCHAR uni1E7F
ENCODING 7807
SWIDTH 558 0
DWIDTH 10 0
BBX 10 11 1 -2
BITMAP
E0C0
3040
30C0
1080
1900
1A00
1E00
1C00
1800
0000
0C00
ENDCHAR
STARTCHAR Wgrave
ENCODING 7808
SWIDTH 878 0
DWIDTH 16 0
BBX 17 17 2 0
BITMAP
030000
010000
008000
000000
F88780
608300
61C200
61C400
62C400
62C800
64C800
24D000
28D000
28E000
30E000
30C000
204000
ENDCHAR
STARTCHAR wgrave
ENCODING 7809
SWIDTH 805 0
DWIDTH 14 0
BBX 14 13 1 0
BITMAP
0600
0200
0100
0000
E10C
6184
338C
3388
3690
14F0
18E0
18C0
1080
ENDCHAR
STARTCHAR Wacute
ENCODING 7810
SWIDTH 878 0
DWIDTH 16 0
BBX 17 17 2 0
BITMAP
006000
008000
010000
000000
F88780
608300
61C200
61C400
62C400
62C800
64C800
24D000
28D000
28E000
30E000
30C000
204000
ENDCHAR
STARTCHAR wacute
ENCODING 7811
SWIDTH 805 0
DWIDTH 14 0
BBX 14 13 1 0
BITMAP
00C0
0100
0200
0000
E10C
6184
338C
3388
3690
14F0
18E0
18C0
1080
ENDCHAR
STARTCHAR Wdieresis
ENCODING 7812
SWIDTH 878 0
DWIDTH 16 0
BBX 17 15 2 0
BITMAP
036000
000000
F88780
608300
61C200
61C400
62C400
62C800
64C800
24D000
28D000
28E000
30E000
30C000
204000
ENDCHAR
STARTCHAR wdieresis
ENCODING 7813
SWIDTH 805 0
DWIDTH 14 0
BBX 14 11 1 0
BITMAP
06C0
0000
E10C
6184
338C
3388
3690
14F0
18E0
18C0
1080
ENDCHAR
STARTCHAR uni1E86
ENCODING 7814
SWIDTH 878 0
DWIDTH 16 0
BBX 17 15 2 0
BITMAP
018000
000000
F88780
608300
61C200
61C400
62C400
62C800
64C800
24D000
28D000
28E000
30E000
30C000
204000
ENDCHAR
STARTCHAR uni1E87
ENCODING 7815
SWIDTH 805 0
DWIDTH 14 0
BBX 14 11 1 0
BITMAP
0300
0000
E10C
6184
338C
3388
3690
14F0
18E0
18C0
1080
ENDCHAR
STARTCHAR uni1E88
ENCODING 7816
SWIDTH 878 0
DWIDTH 16 0
BBX 17 15 2 -2
BITMAP
F88780
608300
61C200
61C400
62C400
62C800
64C800
24D000
28D000
28E000
30E000
30C000
204000
000000
030000
ENDCHAR
STARTCHAR uni1E89
ENCODING 7817
SWIDTH 805 0
DWIDTH 14 0
BBX 14 11 1 -2
BITMAP
E10C
6184
338C
3388
3690
14F0
18E0
18C0
1080
0000
0300
ENDCHAR
STARTCHAR uni1E8A
ENCODING 7818
SWIDTH 624 0
DWIDTH 11 0
BBX 14 15 0 0
BITMAP
0180
0000
1F1C
0C18
0630
0660
02C0
0380
0380
0380
0D80
08C0
10C0
2060
F1F0
ENDCHAR
STARTCHAR uni1E8B
ENCODING 7819
SWIDTH 510 0
DWIDTH 9 0
BBX 9 11 1 0
BITMAP
0C00
0000
7180
3180
1B00
1C00
0C00
3C00
6600
C700
C380
ENDCHAR
STARTCHAR uni1E8C
ENCODING 7820
SWIDTH 624 0
DWIDTH 11 0
BBX 14 15 0 0
BITMAP
06C0
0000
1F1C
0C18
0630
0660
02C0
0380
0380
0380
0D80
08C0
10C0
2060
F1F0
ENDCHAR
STARTCHAR uni1E8D
ENCODING 7821
SWIDTH 510 0
DWIDTH 9 0
BBX 9 11 1 0
BITMAP
3600
0000
7180
3180
1B00
1C00
0C00
3C00
6600
C700
C380
ENDCHAR
STARTCHAR uni1E8E
ENCODING 7822
SWIDTH 663 0
DWIDTH 12 0
BBX 12 15 2 0
BITMAP
0600
0000
F870
6060
3040
3080
1900
1A00
1C00
0800
1800
1800
1800
3800
7C00
ENDCHAR
STARTCHAR uni1E8F
ENCODING 7823
SWIDTH 558 0
DWIDTH 10 0
BBX 11 14 0 -3
BITMAP
0600
0000
7060
1820
1860
0840
0C80
0D00
0E00
0C00
0800
1000
3000
E000
ENDCHAR
STARTCHAR uni1E90
ENCODING 7824
SWIDTH 633 0
DWIDTH 11 0
BBX 12 17 1 0
BITMAP
0380
0680
0840
0000
1FF0
1060
30C0
01C0
0180
0300
0600
0C00
1800
3800
3040
6040
FFC0
ENDCHAR
STARTCHAR uni1E91
ENCODING 7825
SWIDTH 536 0
DWIDTH 10 0
BBX 9 13 1 0
BITMAP
0E00
1A00
2100
0000
3F80
2300
2600
0C00
1800
1800
3100
6100
FF00
ENDCHAR
STARTCHAR uni1E92
ENCODING 7826
SWIDTH 633 0
DWIDTH 11 0
BBX 12 15 1 -2
BITMAP
1FF0
1060
30C0
01C0
0180
0300
0600
0C00
1800
3800
3040
6040
FFC0
0000
0C00
ENDCHAR
STARTCHAR uni1E93
ENCODING 7827
SWIDTH 536 0
DWIDTH 10 0
BBX 9 11 1 -2
BITMAP
3F80
2300
2600
0C00
1800
1800
3100
6100
FF00
0000
1800
ENDCHAR
STARTCHAR uni1E94
ENCODING 7828
SWIDTH 633 0
DWIDTH 11 0
BBX 12 15 1 -2
BITMAP
1FF0
1060
30C0
01C0
0180
0300
0600
0C00
1800
3800
3040
6040
FFC0
0000
1F00
ENDCHAR
STARTCHAR uni1E95
ENCODING 7829
SWIDTH 536 0
DWIDTH 10 0
BBX 9 11 1 -2
BITMAP
3F80
2300
2600
0C00
1800
1800
3100
6100
FF00
0000
3E00
ENDCHAR
STARTCHAR uni1E96
ENCODING 7830
SWIDTH 631 0
DWIDTH 11 0
BBX 10 15 2 -2
BITMAP
7800
1000
3000
3000
3380
24C0
68C0
7080
6180
6180
4180
C180
C3C0
0000
1F00
ENDCHAR
STARTCHAR uni1E97
ENCODING 7831
SWIDTH 355 0
DWIDTH 6 0
BBX 6 14 2 0
BITMAP
6C
00
30
30
30
FC
60
60
60
40
C0
C0
C0
70
ENDCHAR
STARTCHAR uni1E98
ENCODING 7832
SWIDTH 805 0
DWIDTH 14 0
BBX 14 13 1 0
BITMAP
0380
0280
0380
0000
E10C
6184
338C
3388
3690
14F0
18E0
18C0
1080
ENDCHAR
STARTCHAR uni1E99
ENCODING 7833
SWIDTH 558 0
DWIDTH 10 0
BBX 11 16 0 -3
BITMAP
0700
0500
0700
0000
7060
1820
1860
0840
0C80
0D00
0E00
0C00
0800
1000
3000
E000
ENDCHAR
STARTCHAR uni1EA0
ENCODING 7840
SWIDTH 747 0
DWIDTH 13 0
BBX 13 15 0 -2
BITMAP
00C0
00C0
01C0
03C0
02C0
0460
0C60
0860
1FE0
1060
2020
4030
F0F8
0000
0300
ENDCHAR
STARTCHAR uni1EA1
ENCODING 7841
SWIDTH 608 0
DWIDTH 11 0
BBX 10 11 1 -2
BITMAP
0FC0
10C0
2080
6180
4180
C380
C580
C900
73C0
0000
0C00
ENDCHAR
STARTCHAR uni1EA4
ENCODING 7844
SWIDTH 747 0
DWIDTH 13 0
BBX 13 21 0 0
BITMAP
0060
0080
0100
0000
00E0
01A0
0210
0000
00C0
00C0
01C0
03C0
02C0
0460
0C60
0860
1FE0
1060
2020
4030
F0F8
ENDCHAR
STARTCHAR uni1EA5
ENCODING 7845
SWIDTH 608 0
DWIDTH 11 0
BBX 10 17 1 0
BITMAP
0180
0200
0400
0000
0380
0680
0840
0000
0FC0
10C0
2080
6180
4180
C380
C580
C900
73C0
ENDCHAR
STARTCHAR uni1EA6
ENCODING 7846
SWIDTH 747 0
DWIDTH 13 0
BBX 13 21 0 0
BITMAP
0300
0100
0080
0000
00E0
01A0
0210
0000
00C0
00C0
01C0
03C0
02C0
0460
0C60
0860
1FE0
1060
2020
4030
F0F8
ENDCHAR
STARTCHAR uni1EA7
ENCODING 7847
SWIDTH 608 0
DWIDTH 11 0
BBX 10 17 1 0
BITMAP
0C00
0400
0200
0000
0380
0680
0840
0000
0FC0
10C0
2080
6180
4180
C380
C580
C900
73C0
ENDCHAR
STARTCHAR uni1EAA
ENCODING 7850
SWIDTH 747 0
DWIDTH 13 0
BBX 13 20 0 0
BITMAP
0320
04C0
0000
00E0
01A0
0210
0000
00C0
00C0
01C0
03C0
02C0
0460
0C60
0860
1FE0
1060
2020
4030
F0F8
ENDCHAR
STARTCHAR uni1EAB
ENCODING 7851
SWIDTH 608 0
DWIDTH 11 0
BBX 10 16 1 0
BITMAP
0640
0980
0000
0380
0680
0840
0000
0FC0
10C0
2080
6180
4180
C380
C580
C900
73C0
ENDCHAR
STARTCHAR uni1EAC
ENCODING 7852
SWIDTH 747 0
DWIDTH 13 0
BBX 13 19 0 -2
BITMAP
01C0
0340
0420
0000
00C0
00C0
01C0
03C0
02C0
0460
0C60
0860
1FE0
1060
2020
4030
F0F8
0000
0300
ENDCHAR
STARTCHAR uni1EAD
ENCODING 7853
SWIDTH 608 0
DWIDTH 11 0
BBX 10 15 1 -2
BITMAP
0700
0D00
1080
0000
0FC0
10C0
2080
6180
4180
C380
C580
C900
73C0
0000
0C00
ENDCHAR
STARTCHAR uni1EAE
ENCODING 7854
SWIDTH 747 0
DWIDTH 13 0
BBX 13 21 0 0
BITMAP
00C0
0100
0200
0000
0420
06C0
0380
0000
00C0
00C0
01C0
03C0
02C0
0460
0C60
0860
1FE0
1060
2020
4030
F0F8
ENDCHAR
STARTCHAR uni1EAF
ENCODING 7855
SWIDTH 608 0
DWIDTH 11 0
BBX 10 17 1 0
BITMAP
0180
0200
0400
0000
0840
0D80
0700
0000
0FC0
10C0
2080
6180
4180
C380
C580
C900
73C0
ENDCHAR
STARTCHAR uni1EB0
ENCODING 7856
SWIDTH 747 0
DWIDTH 13 0
BBX 13 21 0 0
BITMAP
0600
0200
0100
0000
0420
06C0
0380
0000
00C0
00C0
01C0
03C0
02C0
0460
0C60
0860
1FE0
1060
2020
4030
F0F8
ENDCHAR
STARTCHAR uni1EB1
ENCODING 7857
SWIDTH 608 0
DWIDTH 11 0
BBX 10 17 1 0
BITMAP
0C00
0400
0200
0000
0840
0D80
0700
0000
0FC0
10C0
2080
6180
4180
C380
C580
C900
73C0
ENDCHAR
STARTCHAR uni1EB4
ENCODING 7860
SWIDTH 747 0
DWIDTH 13 0
BBX 13 20 0 0
BITMAP
0320
04C0
0000
0420
06C0
0380
0000
00C0
00C0
01C0
03C0
02C0
0460
0C60
0860
1FE0
1060
2020
4030
F0F8
ENDCHAR
STARTCHAR uni1EB5
ENCODING 7861
SWIDTH 608 0
DWIDTH 11 0
BBX 10 16 1 0
BITMAP
0C80
1300
0000
0840
0D80
0700
0000
0FC0
10C0
2080
6180
4180
C380
C580
C900
73C0
ENDCHAR
STARTCHAR uni1EB6
ENCODING 7862
SWIDTH 747 0
DWIDTH 13 0
BBX 13 19 0 -2
BITMAP
0420
06C0
0380
0000
00C0
00C0
01C0
03C0
02C0
0460
0C60
0860
1FE0
1060
2020
4030
F0F8
0000
0300
ENDCHAR
STARTCHAR uni1EB7
ENCODING 7863
SWIDTH 608 0
DWIDTH 11 0
BBX 10 15 1 -2
BITMAP
0840
0D80
0700
0000
0FC0
10C0
2080
6180
4180
C380
C580
C900
73C0
0000
0C00
ENDCHAR
STARTCHAR uni1EB8
ENCODING 7864
SWIDTH 569 0
DWIDTH 10 0
BBX 11 15 1 -2
BITMAP
3FE0
1820
1820
1800
1800
1880
1F80
3100
3000
3000
3080
3080
FF80
0000
0C00
ENDCHAR
STARTCHAR uni1EB9
ENCODING 7865
SWIDTH 518 0
DWIDTH 9 0
BBX 8 11 2 -2
BITMAP
0E
33
63
42
FC
C0
C1
E6
7C
00
18
ENDCHAR
STARTCHAR uni1EBC
ENCODING 7868
SWIDTH 569 0
DWIDTH 10 0
BBX 11 16 1 0
BITMAP
0C80
1300
0000
3FE0
1820
1820
1800
1800
1880
1F80
3100
3000
3000
3080
3080
FF80
ENDCHAR
STARTCHAR uni1EBD
ENCODING 7869
SWIDTH 518 0
DWIDTH 9 0
BBX 8 12 2 0
BITMAP
19
26
00
0E
33
63
42
FC
C0
C1
E6
7C
ENDCHAR
STARTCHAR uni1EBE
ENCODING 7870
SWIDTH 569 0
DWIDTH 10 0
BBX 11 21 1 0
BITMAP
0180
0200
0400
0000
0380
0680
0840
0000
3FE0
1820
1820
1800
1800
1880
1F80
3100
3000
3000
3080
3080
FF80
ENDCHAR
STARTCHAR uni1EBF
ENCODING 7871
SWIDTH 518 0
DWIDTH 9 0
BBX 9 17 2 0
BITMAP
0180
0200
0400
0000
0700
0D00
1080
0000
0E00
3300
6300
4200
FC00
C000
C100
E600
7C00
ENDCHAR
STARTCHAR uni1EC0
ENCODING 7872
SWIDTH 569 0
DWIDTH 10 0
BBX 11 21 1 0
BITMAP
0C00
0400
0200
0000
0380
0680
0840
0000
3FE0
1820
1820
1800
1800
1880
1F80
3100
3000
3000
3080
3080
FF80
ENDCHAR
STARTCHAR uni1EC1
ENCODING 7873
SWIDTH 518 0
DWIDTH 9 0
BBX 9 17 2 0
BITMAP
1800
0800
0400
0000
0700
0D00
1080
0000
0E00
3300
6300
4200
FC00
C000
C100
E600
7C00
ENDCHAR
STARTCHAR uni1EC4
ENCODING 7876
SWIDTH 569 0
DWIDTH 10 0
BBX 11 20 1 0
BITMAP
0C80
1300
0000
0380
0680
0840
0000
3FE0
1820
1820
1800
1800
1880
1F80
3100
3000
3000
3080
3080
FF80
ENDCHAR
STARTCHAR uni1EC5
ENCODING 7877
SWIDTH 518 0
DWIDTH 9 0
BBX 9 16 2 0
BITMAP
0C80
1300
0000
0700
0D00
1080
0000
0E00
3300
6300
4200
FC00
C000
C100
E600
7C00
ENDCHAR
STARTCHAR uni1EC6
ENCODING 7878
SWIDTH 569 0
DWIDTH 10 0
BBX 11 19 1 -2
BITMAP
0700
0D00
1080
0000
3FE0
1820
1820
1800
1800
1880
1F80
3100
3000
3000
3080
3080
FF80
0000
0C00
ENDCHAR
STARTCHAR uni1EC7
ENCODING 7879
SWIDTH 518 0
DWIDTH 9 0
BBX 8 15 2 -2
BITMAP
0E
1A
21
00
0E
33
63
42
FC
C0
C1
E6
7C
00
18
ENDCHAR
STARTCHAR uni1ECA
ENCODING 7882
SWIDTH 325 0
DWIDTH 6 0
BBX 8 15 0 -2
BITMAP
1F
0C
0C
0C
08
18
18
18
10
30
30
30
F8
00
30
ENDCHAR
STARTCHAR uni1ECB
ENCODING 7883
SWIDTH 289 0
DWIDTH 5 0
BBX 4 15 2 -2
BITMAP
30
00
00
00
E0
60
60
60
40
40
40
C0
E0
00
60
ENDCHAR
STARTCHAR uni1ECC
ENCODING 7884
SWIDTH 783 0
DWIDTH 14 0
BBX 13 15 2 -2
BITMAP
07C0
0C70
3030
2018
6018
4018
C018
C030
C030
C060
C0C0
6180
3E00
0000
0C00
ENDCHAR
STARTCHAR uni1ECD
ENCODING 7885
SWIDTH 560 0
DWIDTH 10 0
BBX 9 11 2 -2
BITMAP
0F00
3380
6180
4180
C180
C300
C300
C600
7800
0000
1800
ENDCHAR
STARTCHAR uni1ED0
ENCODING 7888
SWIDTH 783 0
DWIDTH 14 0
BBX 13 21 2 0
BITMAP
00C0
0100
0200
0000
01C0
0340
0420
0000
07C0
0C70
3030
2018
6018
4018
C018
C030
C030
C060
C0C0
6180
3E00
ENDCHAR
STARTCHAR uni1ED1
ENCODING 7889
SWIDTH 560 0
DWIDTH 10 0
BBX 9 17 2 0
BITMAP
0180
0200
0400
0000
0700
0D00
1080
0000
0F00
3380
6180
4180
C180
C300
C300
C600
7800
ENDCHAR
STARTCHAR uni1ED2
ENCODING 7890
SWIDTH 783 0
DWIDTH 14 0
BBX 13 21 2 0
BITMAP
0600
0200
0100
0000
01C0
0340
0420
0000
07C0
0C70
3030
2018
6018
4018
C018
C030
C030
C060
C0C0
6180
3E00
ENDCHAR
STARTCHAR uni1ED3
ENCODING 7891
SWIDTH 560 0
DWIDTH 10 0
BBX 9 17 2 0
BITMAP
1800
0800
0400
0000
0700
0D00
1080
0000
0F00
3380
6180
4180
C180
C300
C300
C600
7800
ENDCHAR
STARTCHAR uni1ED6
ENCODING 7894
SWIDTH 783 0
DWIDTH 14 0
BBX 13 20 2 0
BITMAP
0320
04C0
0000
01C0
0340
0420
0000
07C0
0C70
3030
2018
6018
4018
C018
C030
C030
C060
C0C0
6180
3E00
ENDCHAR
STARTCHAR uni1ED7
ENCODING 7895
SWIDTH 560 0
DWIDTH 10 0
BBX 9 16 2 0
BITMAP
0C80
1300
0000
0700
0D00
1080
0000
0F00
3380
6180
4180
C180
C300
C300
C600
7800
ENDCHAR
STARTCHAR uni1ED8
ENCODING 7896
SWIDTH 783 0
DWIDTH 14 0
BBX 13 19 2 -2
BITMAP
0380
0680
0840
0000
07C0
0C70
3030
2018
6018
4018
C018
C030
C030
C060
C0C0
6180
3E00
0000
0C00
ENDCHAR
STARTCHAR uni1ED9
ENCODING 7897
SWIDTH 560 0
DWIDTH 10 0
BBX 9 15 2 -2
BITMAP
0E00
1A00
2100
0000
0F00
3380
6180
4180
C180
C300
C300
C600
7800
0000
1800
ENDCHAR
STARTCHAR uni1EDA
ENCODING 7898
SWIDTH 783 0
DWIDTH 14 0
BBX 15 17 2 0
BITMAP
0030
0040
0080
0000
07C6
0C76
3036
201C
601C
4018
C018
C030
C030
C060
C0C0
6180
3E00
ENDCHAR
STARTCHAR uni1EDB
ENCODING 7899
SWIDTH 560 0
DWIDTH 10 0
BBX 11 13 2 0
BITMAP
0180
0200
0400
0000
0F60
33E0
61E0
41C0
C1C0
C300
C300
C600
7800
ENDCHAR
STARTCHAR uni1EDC
ENCODING 7900
SWIDTH 783 0
DWIDTH 14 0
BBX 15 17 2 0
BITMAP
0180
0080
0040
0000
07C6
0C76
3036
201C
601C
4018
C018
C030
C030
C060
C0C0
6180
3E00
ENDCHAR
STARTCHAR uni1EDD
ENCODING 7901
SWIDTH 560 0
DWIDTH 10 0
BBX 11 13 2 0
BITMAP
0C00
0400
0200
0000
0F60
33E0
61E0
41C0
C1C0
C300
C300
C600
7800
ENDCHAR
STARTCHAR uni1EE0
ENCODING 7904
SWIDTH 783 0
DWIDTH 14 0
BBX 15 16 2 0
BITMAP
0190
0260
0000
07C6
0C76
3036
201C
601C
4018
C018
C030
C030
C060
C0C0
6180
3E00
ENDCHAR
STARTCHAR uni1EE1
ENCODING 7905
SWIDTH 560 0
DWIDTH 10 0
BBX 11 12 2 0
BITMAP
0640
0980
0000
0F60
33E0
61E0
41C0
C1C0
C300
C300
C600
7800
ENDCHAR
STARTCHAR uni1EE2
ENCODING 7906
SWIDTH 783 0
DWIDTH 14 0
BBX 15 15 2 -2
BITMAP
07C6
0C76
3036
201C
601C
4018
C018
C030
C030
C060
C0C0
6180
3E00
0000
0600
ENDCHAR
STARTCHAR uni1EE3
ENCODING 7907
SWIDTH 560 0
DWIDTH 10 0
BBX 11 11 2 -2
BITMAP
0F60
33E0
61E0
41C0
C1C0
C300
C300
C600
7800
0000
1800
ENDCHAR
STARTCHAR uni1EE4
ENCODING 7908
SWIDTH 727 0
DWIDTH 13 0
BBX 13 15 3 -2
BITMAP
F878
7020
6020
6020
6040
6040
4040
C040
C040
C080
C080
6100
3E00
0000
0C00
ENDCHAR
STARTCHAR uni1EE5
ENCODING 7909
SWIDTH 630 0
DWIDTH 11 0
BBX 10 11 2 -2
BITMAP
F3C0
60C0
6080
6180
6180
4380
C580
C900
73C0
0000
0C00
ENDCHAR
STARTCHAR uni1EE8
ENCODING 7912
SWIDTH 727 0
DWIDTH 13 0
BBX 15 17 3 0
BITMAP
0060
0080
0100
0000
F87E
7026
6026
6024
604C
6040
4040
C040
C040
C080
C080
6100
3E00
ENDCHAR
STARTCHAR uni1EE9
ENCODING 7913
SWIDTH 630 0
DWIDTH 11 0
BBX 12 13 2 0
BITMAP
0180
0200
0400
0000
F3F0
60F0
60B0
61A0
61E0
4380
C580
C900
73C0
ENDCHAR
STARTCHAR uni1EEA
ENCODING 7914
SWIDTH 727 0
DWIDTH 13 0
BBX 15 17 3 0
BITMAP
0600
0200
0100
0000
F87E
7026
6026
6024
604C
6040
4040
C040
C040
C080
C080
6100
3E00
ENDCHAR
STARTCHAR uni1EEB
ENCODING 7915
SWIDTH 630 0
DWIDTH 11 0
BBX 12 13 2 0
BITMAP
0C00
0400
0200
0000
F3F0
60F0
60B0
61A0
61E0
4380
C580
C900
73C0
ENDCHAR
STARTCHAR uni1EEE
ENCODING 7918
SWIDTH 727 0
DWIDTH 13 0
BBX 15 16 3 0
BITMAP
0320
04C0
0000
F87E
7026
6026
6024
604C
6040
4040
C040
C040
C080
C080
6100
3E00
ENDCHAR
STARTCHAR uni1EEF
ENCODING 7919
SWIDTH 630 0
DWIDTH 11 0
BBX 12 12 2 0
BITMAP
0640
0980
0000
F3F0
60F0
60B0
61A0
61E0
4380
C580
C900
73C0
ENDCHAR
STARTCHAR uni1EF0
ENCODING 7920
SWIDTH 727 0
DWIDTH 13 0
BBX 15 15 3 -2
BITMAP
F87E
7026
6026
6024
604C
6040
4040
C040
C040
C080
C080
6100
3E00
0000
0C00
ENDCHAR
STARTCHAR uni1EF1
ENCODING 7921
SWIDTH 630 0
DWIDTH 11 0
BBX 12 11 2 -2
BITMAP
F3F0
60F0
60B0
61A0
61E0
4380
C580
C900
73C0
0000
0C00
ENDCHAR
STARTCHAR Ygrave
ENCODING 7922
SWIDTH 663 0
DWIDTH 12 0
BBX 12 17 2 0
BITMAP
1800
0800
0400
0000
F870
6060
3040
3080
1900
1A00
1C00
0800
1800
1800
1800
3800
7C00
ENDCHAR
STARTCHAR ygrave
ENCODING 7923
SWIDTH 558 0
DWIDTH 10 0
BBX 11 16 0 -3
BITMAP
0C00
0400
0200
0000
7060
1820
1860
0840
0C80
0D00
0E00
0C00
0800
1000
3000
E000
ENDCHAR
STARTCHAR uni1EF4
ENCODING 7924
SWIDTH 663 0
DWIDTH 12 0
BBX 12 15 2 -2
BITMAP
F870
6060
3040
3080
1900
1A00
1C00
0800
1800
1800
1800
3800
7C00
0000
1800
ENDCHAR
STARTCHAR uni1EF5
ENCODING 7925
SWIDTH 558 0
DWIDTH 10 0
BBX 11 14 0 -5
BITMAP
7060
1820
1860
0840
0C80
0D00
0E00
0C00
0800
1000
3000
E000
0000
1800
ENDCHAR
STARTCHAR uni1EF8
ENCODING 7928
SWIDTH 663 0
DWIDTH 12 0
BBX 12 16 2 0
BITMAP
0C80
1300
0000
F870
6060
3040
3080
1900
1A00
1C00
0800
1800
1800
1800
3800
7C00
ENDCHAR
STARTCHAR uni1EF9
ENCODING 7929
SWIDTH 558 0
DWIDTH 10 0
BBX 11 15 0 -3
BITMAP
0C80
1300
0000
7060
1820
1860
0840
0C80
0D00
0E00
0C00
0800
1000
3000
E000
ENDCHAR
STARTCHAR uni2000
ENCODING 8192
SWIDTH 500 0
DWIDTH 9 0
BBX 1 1 0 0
BITMAP
00
ENDCHAR
STARTCHAR uni2001
ENCODING 8193
SWIDTH 1000 0
DWIDTH 19 0
BBX 1 1 0 0
BITMAP
00
ENDCHAR
STARTCHAR uni2002
ENCODING 8194
SWIDTH 500 0
DWIDTH 9 0
BBX 1 1 0 0
BITMAP
00
ENDCHAR
STARTCHAR uni2003
ENCODING 8195
SWIDTH 1000 0
DWIDTH 19 0
BBX 1 1 0 0
BITMAP
00
ENDCHAR
STARTCHAR uni2004
ENCODING 8196
SWIDTH 333 0
DWIDTH 6 0
BBX 1 1 0 0
BITMAP
00
ENDCHAR
STARTCHAR uni2005
ENCODING 8197
SWIDTH 250 0
DWIDTH 5 0
BBX 1 1 0 0
BITMAP
00
ENDCHAR
STARTCHAR uni2006
ENCODING 8198
SWIDTH 167 0
DWIDTH 3 0
BBX 1 1 0 0
BITMAP
00
ENDCHAR
STARTCHAR uni2007
ENCODING 8199
SWIDTH 608 0
DWIDTH 11 0
BBX 1 1 0 0
BITMAP
00
ENDCHAR
STARTCHAR uni2008
ENCODING 8200
SWIDTH 265 0
DWIDTH 5 0
BBX 1 1 0 0
BITMAP
00
ENDCHAR
STARTCHAR uni2009
ENCODING 8201
SWIDTH 200 0
DWIDTH 4 0
BBX 1 1 0 0
BITMAP
00
ENDCHAR
STARTCHAR uni200A
ENCODING 8202
SWIDTH 100 0
DWIDTH 2 0
BBX 1 1 0 0
BITMAP
00
ENDCHAR
STARTCHAR uni200B
ENCODING 8203
SWIDTH 0 0
DWIDTH 0 0
BBX 1 1 0 0
BITMAP
00
ENDCHAR
STARTCHAR uni2010
ENCODING 8208
SWIDTH 313 0
DWIDTH 6 0
BBX 4 1 2 5
BITMAP
F0
ENDCHAR
STARTCHAR uni2011
ENCODING 8209
SWIDTH 313 0
DWIDTH 6 0
BBX 4 1 2 5
BITMAP
F0
ENDCHAR
STARTCHAR figuredash
ENCODING 8210
SWIDTH 500 0
DWIDTH 9 0
BBX 7 1 2 5
BITMAP
FE
ENDCHAR
STARTCHAR endash
ENCODING 8211
SWIDTH 500 0
DWIDTH 9 0
BBX 7 1 2 5
BITMAP
FE
ENDCHAR
STARTCHAR emdash
ENCODING 8212
SWIDTH 1000 0
DWIDTH 18 0
BBX 16 1 2 5
BITMAP
FFFF
ENDCHAR
STARTCHAR afii00208
ENCODING 8213
SWIDTH 1000 0
DWIDTH 18 0
BBX 16 1 2 5
BITMAP
FFFF
ENDCHAR
STARTCHAR quoteleft
ENCODING 8216
SWIDTH 265 0
DWIDTH 5 0
BBX 3 5 3 8
BITMAP
60
40
C0
E0
C0
ENDCHAR
STARTCHAR quoteright
ENCODING 8217
SWIDTH 265 0
DWIDTH 5 0
BBX 3 5 3 8
BITMAP
60
60
60
40
C0
ENDCHAR
STARTCHAR quotesinglbase
ENCODING 8218
SWIDTH 265 0
DWIDTH 5 0
BBX 3 5 1 -3
BITMAP
60
60
60
40
C0
ENDCHAR
STARTCHAR quotereversed
ENCODING 8219
SWIDTH 265 0
DWIDTH 5 0
BBX 3 5 3 8
BITMAP
C0
C0
C0
40
60
ENDCHAR
STARTCHAR quotedblleft
ENCODING 8220
SWIDTH 457 0
DWIDTH 8 0
BBX 7 5 3 8
BITMAP
26
44
4C
EC
CC
ENDCHAR
STARTCHAR quotedblright
ENCODING 8221
SWIDTH 457 0
DWIDTH 8 0
BBX 7 5 3 8
BITMAP
66
6E
64
44
C8
ENDCHAR
STARTCHAR quotedblbase
ENCODING 8222
SWIDTH 457 0
DWIDTH 8 0
BBX 7 5 1 -3
BITMAP
66
6E
66
44
C8
ENDCHAR
STARTCHAR uni201F
ENCODING 8223
SWIDTH 457 0
DWIDTH 8 0
BBX 7 5 3 8
BITMAP
CC
EC
4C
44
26
ENDCHAR
STARTCHAR dagger
ENCODING 8224
SWIDTH 608 0
DWIDTH 11 0
BBX 8 16 3 -3
BITMAP
0C
08
08
08
08
FF
10
10
10
10
30
30
20
20
60
60
ENDCHAR
STARTCHAR daggerdbl
ENCODING 8225
SWIDTH 608 0
DWIDTH 11 0
BBX 9 16 2 -3
BITMAP
0600
0400
0400
0400
7F80
0800
0800
0800
0800
0800
FF00
1000
1000
1000
1000
3000
ENDCHAR
STARTCHAR bullet
ENCODING 8226
SWIDTH 608 0
DWIDTH 11 0
BBX 6 5 3 3
BITMAP
78
FC
FC
FC
78
ENDCHAR
STARTCHAR ellipsis
ENCODING 8230
SWIDTH 1000 0
DWIDTH 18 0
BBX 14 1 2 0
BITMAP
C30C
ENDCHAR
STARTCHAR perthousand
ENCODING 8240
SWIDTH 1065 0
DWIDTH 19 0
BBX 18 13 2 0
BITMAP
3C1800
243000
442000
444000
4C8000
390000
02E1C0
059240
091640
131440
233440
6124C0
C1C380
ENDCHAR
STARTCHAR guilsinglleft
ENCODING 8249
SWIDTH 330 0
DWIDTH 6 0
BBX 5 9 1 0
BITMAP
08
10
20
60
C0
40
60
20
20
ENDCHAR
STARTCHAR guilsinglright
ENCODING 8250
SWIDTH 330 0
DWIDTH 6 0
BBX 5 9 1 0
BITMAP
20
20
30
10
18
30
20
40
80
ENDCHAR
STARTCHAR fraction
ENCODING 8260
SWIDTH 36 0
DWIDTH 2 0
BBX 13 13 -3 0
BITMAP
0018
0030
0060
0040
0080
0100
0200
0400
0800
1000
3000
6000
C000
ENDCHAR
STARTCHAR oneinferior
ENCODING 8321
SWIDTH 365 0
DWIDTH 7 0
BBX 4 9 -9 -4
BITMAP
70
10
10
20
20
20
20
20
F0
ENDCHAR
STARTCHAR twoinferior
ENCODING 8322
SWIDTH 365 0
DWIDTH 7 0
BBX 6 9 -8 -4
BITMAP
38
44
04
04
18
20
60
40
F8
ENDCHAR
STARTCHAR threeinferior
ENCODING 8323
SWIDTH 365 0
DWIDTH 7 0
BBX 6 9 -9 -4
BITMAP
38
48
0C
08
70
08
08
98
F0
ENDCHAR
STARTCHAR uni20A5
ENCODING 8357
SWIDTH 944 0
DWIDTH 17 0
BBX 15 16 2 -3
BITMAP
0008
0010
0020
0020
F3DC
2DF6
79E6
71C4
618C
430C
470C
C70C
CB0E
0800
1000
2000
ENDCHAR
STARTCHAR uni20A6
ENCODING 8358
SWIDTH 762 0
DWIDTH 14 0
BBX 16 13 0 0
BITMAP
3C1F
0C04
0E04
1608
1FFC
1308
1188
1FF8
20D0
2070
2070
2030
F020
ENDCHAR
STARTCHAR uni20A9
ENCODING 8361
SWIDTH 878 0
DWIDTH 16 0
BBX 17 13 2 0
BITMAP
F88780
608300
61C200
61C400
6FFC00
62C800
64C800
3FF800
28D000
28E000
30E000
30C000
204000
ENDCHAR
STARTCHAR Euro
ENCODING 8364
SWIDTH 714 0
DWIDTH 13 0
BBX 15 13 -1 0
BITMAP
00FE
0386
0606
0600
7FE0
0C00
1800
FFC0
1800
1800
1C00
0E18
07E0
ENDCHAR
STARTCHAR uni20AD
ENCODING 8365
SWIDTH 698 0
DWIDTH 13 0
BBX 14 13 0 0
BITMAP
1F3C
0C18
0C20
0CC0
1980
1A00
FFFC
1B00
1380
31C0
30C0
3060
F9F0
ENDCHAR
STARTCHAR uni2103
ENCODING 8451
SWIDTH 977 0
DWIDTH 18 0
BBX 16 13 3 0
BITMAP
E07F
A1C3
E303
0300
0600
0600
0C00
0C00
0C00
0C00
0E00
070C
03F0
ENDCHAR
STARTCHAR uni2109
ENCODING 8457
SWIDTH 814 0
DWIDTH 15 0
BBX 14 13 3 0
BITMAP
E7FC
A304
E304
0300
0300
0310
03F0
0620
0600
0600
0600
0600
1F00
ENDCHAR
STARTCHAR trademark
ENCODING 8482
SWIDTH 904 0
DWIDTH 16 0
BBX 16 7 2 6
BITMAP
FFC7
10EE
30F4
20F4
2164
212C
F30E
ENDCHAR
STARTCHAR uni212A
ENCODING 8490
SWIDTH 698 0
DWIDTH 13 0
BBX 14 13 0 0
BITMAP
1F3C
0C18
0C20
0CC0
1980
1A00
1E00
1B00
1380
31C0
30C0
3060
F9F0
ENDCHAR
STARTCHAR uni212B
ENCODING 8491
SWIDTH 747 0
DWIDTH 13 0
BBX 13 17 0 0
BITMAP
00E0
00A0
00E0
0000
00C0
00C0
01C0
03C0
02C0
0460
0C60
0860
1FE0
1060
2020
4030
F0F8
ENDCHAR
STARTCHAR uni2132
ENCODING 8498
SWIDTH 551 0
DWIDTH 10 0
BBX 11 13 1 0
BITMAP
03E0
0180
0180
0180
0180
1180
3F00
2300
0300
0300
8300
8300
FF80
ENDCHAR
STARTCHAR minus
ENCODING 8722
SWIDTH 608 0
DWIDTH 11 0
BBX 11 1 1 5
BITMAP
FFE0
ENDCHAR
STARTCHAR fraction
ENCODING 8725
SWIDTH 36 0
DWIDTH 2 0
BBX 13 13 -3 0
BITMAP
0018
0030
0060
0040
0080
0100
0200
0400
0800
1000
3000
6000
C000
ENDCHAR
STARTCHAR periodcentered
ENCODING 8729
SWIDTH 608 0
DWIDTH 11 0
BBX 2 1 6 5
BITMAP
C0
ENDCHAR
STARTCHAR uni2236
ENCODING 8758
SWIDTH 265 0
DWIDTH 5 0
BBX 4 9 1 0
BITMAP
30
70
00
00
00
00
00
E0
C0
ENDCHAR
STARTCHAR uni2259
ENCODING 8793
SWIDTH 608 0
DWIDTH 11 0
BBX 11 8 1 3
BITMAP
0700
0D00
1080
0000
7FE0
0000
0000
FFC0
ENDCHAR
STARTCHAR uni225A
ENCODING 8794
SWIDTH 608 0
DWIDTH 11 0
BBX 11 8 1 3
BITMAP
1080
0B00
0E00
0000
7FE0
0000
0000
FFC0
ENDCHAR
STARTCHAR notequal
ENCODING 8800
SWIDTH 608 0
DWIDTH 11 0
BBX 11 16 1 -3
BITMAP
0020
0040
0080
0080
0100
0300
7FE0
0400
0400
FFC0
1800
1000
2000
2000
4000
8000
ENDCHAR
STARTCHAR equivalence
ENCODING 8801
SWIDTH 608 0
DWIDTH 11 0
BBX 11 5 0 3
BITMAP
FFE0
0000
FFE0
0000
FFE0
ENDCHAR
STARTCHAR uni2262
ENCODING 8802
SWIDTH 608 0
DWIDTH 11 0
BBX 11 16 0 -2
BITMAP
0020
0040
0080
0080
0100
0300
FFE0
0400
FFE0
0800
FFE0
1000
2000
2000
4000
8000
ENDCHAR
STARTCHAR lessequal
ENCODING 8804
SWIDTH 608 0
DWIDTH 11 0
BBX 11 13 2 -2
BITMAP
0020
00C0
0300
0C00
3000
C000
3000
1800
0600
0100
0080
0000
FFE0
ENDCHAR
STARTCHAR greaterequal
ENCODING 8805
SWIDTH 608 0
DWIDTH 11 0
BBX 11 13 0 -2
BITMAP
2000
1000
0C00
0300
0180
0060
0180
0600
1800
6000
8000
0000
FFE0
ENDCHAR
STARTCHAR uni226E
ENCODING 8814
SWIDTH 608 0
DWIDTH 11 0
BBX 11 16 2 -2
BITMAP
0020
0040
0080
00A0
01C0
0300
0E00
3400
C400
3800
1800
1600
2100
2080
4000
8000
ENDCHAR
STARTCHAR uni226F
ENCODING 8815
SWIDTH 608 0
DWIDTH 11 0
BBX 11 16 0 -2
BITMAP
0020
0040
0080
2080
1100
0F00
0300
0580
0460
0980
1E00
1800
6000
A000
4000
8000
ENDCHAR
STARTCHAR uni2270
ENCODING 8816
SWIDTH 608 0
DWIDTH 11 0
BBX 11 16 2 -3
BITMAP
0020
0040
00A0
00C0
0300
0F00
3200
C400
3400
1800
1E00
1100
2080
2000
FFE0
8000
ENDCHAR
STARTCHAR uni2271
ENCODING 8817
SWIDTH 608 0
DWIDTH 11 0
BBX 11 16 0 -3
BITMAP
0020
0040
2080
1080
0D00
0300
0380
0460
0580
0E00
1800
7000
A000
2000
FFE0
8000
ENDCHAR
STARTCHAR fi
ENCODING -1
SWIDTH 633 0
DWIDTH 11 0
BBX 11 17 1 -3
BITMAP
0700
0960
1900
1800
1000
7FC0
30C0
30C0
30C0
2080
6180
6180
6180
61C0
4000
C000
C000
ENDCHAR
STARTCHAR fl
ENCODING -1
SWIDTH 645 0
DWIDTH 12 0
BBX 11 17 1 -3
BITMAP
07E0
0860
1860
1840
1040
7EC0
30C0
30C0
3080
2080
6180
6180
6180
61C0
4000
C000
C000
ENDCHAR
ENDFONT
